<?xml version="1.0" encoding="UTF-8"?>
<svg version="1.1" xmlns="http://www.w3.org/2000/svg" width="880" height="821">
<path d="M0 0 C290.4 0 580.8 0 880 0 C880 270.93 880 541.86 880 821 C589.6 821 299.2 821 0 821 C0 550.07 0 279.14 0 0 Z " fill="#FEFEFE" transform="translate(0,0)"/>
<path d="M0 0 C290.4 0 580.8 0 880 0 C880 270.93 880 541.86 880 821 C589.6 821 299.2 821 0 821 C0 550.07 0 279.14 0 0 Z M116.625 63.5625 C114.25802368 67.11296448 112.74793588 69.72801941 112.75949097 74.04962158 C112.75674164 74.84605072 112.75399231 75.64247986 112.75115967 76.46304321 C112.75835022 77.32763153 112.76554077 78.19221985 112.77294922 79.08300781 C112.77265717 80.00042755 112.77236511 80.91784729 112.77206421 81.86306763 C112.77345671 84.89318321 112.78901429 87.92305241 112.8046875 90.953125 C112.80841791 93.05490993 112.81126475 95.1566966 112.81326294 97.25848389 C112.82089718 102.78886725 112.84054395 108.31914547 112.8626709 113.8494873 C112.88313378 119.49339373 112.89226561 125.13731716 112.90234375 130.78125 C112.92378997 141.85421285 112.95792347 152.92709768 113 164 C112.17372101 163.99401794 111.34744202 163.98803589 110.49612427 163.98187256 C109.41346283 163.97721985 108.33080139 163.97256714 107.21533203 163.96777344 C106.14155304 163.96179138 105.06777405 163.95580933 103.9614563 163.949646 C87.21701975 164.2343537 71.44112624 174.08988973 59.640625 185.19921875 C46.96811793 198.64032462 39.02811486 216.43889869 38.5625 235 C39.2810292 256.0529055 46.51690137 276.20089368 62 291 C74.87879413 302.01418757 91.04265512 310.10760108 108.21728516 310.0234375 C109.11403961 310.02005371 110.01079407 310.01666992 110.9347229 310.01318359 C111.95703506 310.00665771 111.95703506 310.00665771 113 310 C112.9981014 310.85105454 112.9962028 311.70210908 112.99424666 312.57895315 C112.88236298 363.01626803 112.79657059 413.45356976 112.74467335 463.8909839 C112.7384198 469.9466913 112.73194819 476.00239845 112.7253418 482.05810547 C112.72403024 483.26369073 112.72271869 484.469276 112.7213674 485.71139415 C112.69960923 505.23358748 112.66018539 524.75570721 112.61423602 544.27785687 C112.56748292 564.30850038 112.53970701 584.33910533 112.52955753 604.36980116 C112.52269602 616.73042261 112.50102237 629.09083603 112.46041767 641.45139344 C112.43399351 649.92681272 112.4259983 658.4021244 112.43249311 666.87758188 C112.43569647 671.76795692 112.43077646 676.65796837 112.40397263 681.54827881 C112.37959738 686.02825215 112.37844008 690.50761823 112.39550553 694.98761983 C112.39761391 696.60556511 112.39130737 698.22354866 112.37558409 699.84141891 C112.29351364 708.80997371 112.61686277 716.45134442 118 724 C120.1966831 726.28560125 120.1966831 726.28560125 122.625 727.5625 C123.38039063 728.01753906 124.13578125 728.47257813 124.9140625 728.94140625 C128.67731882 730.8512236 131.59299592 731.12240299 135.7565918 731.11352539 C136.93758957 731.11344986 138.11858734 731.11337433 139.33537292 731.11329651 C141.24797661 731.10555458 141.24797661 731.10555458 143.19921875 731.09765625 C144.50454056 731.0962413 145.80986237 731.09482635 147.15473938 731.09336853 C150.62189656 731.0895538 154.08901174 731.07973244 157.55615234 731.06866455 C161.09537172 731.05842798 164.6345981 731.05381129 168.17382812 731.04882812 C175.1159225 731.03864014 182.05790156 731.01906588 189 731 C189 745.52 189 760.04 189 775 C193.29 775 197.58 775 202 775 C202 760.48 202 745.96 202 731 C363.7 731 525.4 731 692 731 C692 745.52 692 760.04 692 775 C695.96 775 699.92 775 704 775 C704 760.48 704 745.96 704 731 C709.56488281 731.06960938 709.56488281 731.06960938 715.2421875 731.140625 C718.85968662 731.17187467 722.47717036 731.19613175 726.09472656 731.21972656 C728.59707436 731.23976603 731.09937578 731.26700522 733.6015625 731.30175781 C737.21105437 731.3506124 740.81992379 731.37304645 744.4296875 731.390625 C745.53738495 731.41127014 746.6450824 731.43191528 747.78634644 731.45318604 C756.46124638 731.45565777 763.06225654 729.60039663 770.3125 724.8125 C777.06543408 717.74547596 780.25182718 709.35073005 780.24609566 699.62433052 C780.24955719 698.5376077 780.24955719 698.5376077 780.25308865 697.42893088 C780.25838387 695.00047083 780.2494086 692.5722758 780.24050903 690.14382935 C780.2413812 688.38561023 780.24313238 686.62739136 780.24568737 684.86917388 C780.25016274 680.03702786 780.24215456 675.20497038 780.23213124 670.37283564 C780.22350182 665.16225849 780.22641654 659.95168641 780.22793579 654.74110413 C780.22898496 645.71317485 780.22270498 636.68527446 780.21146011 627.65735245 C780.19521246 614.60446359 780.18999786 601.55158871 780.18748413 588.49869083 C780.18310588 567.32171044 780.16979323 546.14474546 780.15087891 524.96777344 C780.13252349 504.39518308 780.11836533 483.8225969 780.10986328 463.25 C780.10933783 461.98210322 780.10881239 460.71420644 780.10827102 459.40788855 C780.10566096 453.0472821 780.10313354 446.68667562 780.10064721 440.32606912 C780.07991065 387.5507021 780.04468156 334.7753518 780 282 C780.94206299 282.01571045 781.88412598 282.0314209 782.85473633 282.04760742 C786.4015063 282.09920551 789.94786857 282.13657541 793.49487305 282.16479492 C795.02032832 282.17973934 796.54574172 282.20010247 798.07104492 282.22631836 C814.98505421 282.50942124 829.39439143 279.33145167 842.3125 267.5625 C853.00175066 256.15830761 857.51452993 241.91786277 857.25 226.55859375 C856.28407006 212.80918481 850.49954336 200.89952413 841 191 C826.99045775 179.03836426 812.20066671 176.65032453 794.375 176.875 C792.97526686 176.88505602 791.57552669 176.89417721 790.17578125 176.90234375 C786.78367075 176.92573762 783.3919294 176.95851827 780 177 C780.01110306 175.70675812 780.02220612 174.41351624 780.03364563 173.08108521 C780.13517869 160.86987768 780.21004101 148.65875625 780.25906086 136.44722176 C780.2851101 130.1697131 780.32042373 123.89254631 780.37719727 117.61523438 C780.43168224 111.55274997 780.46145567 105.49059358 780.47438622 99.42788315 C780.48359641 97.11949376 780.50158176 94.81112152 780.52865028 92.50287247 C780.56515853 89.25950127 780.56993609 86.0174707 780.56762695 82.77392578 C780.59459152 81.3551136 780.59459152 81.3551136 780.62210083 79.90763855 C780.56954877 73.04757391 778.85488941 67.71525034 775 62 C770.35293894 57.46499615 765.78099472 55.87776611 759.42794871 55.87004817 C758.50792258 55.86651975 757.58789646 55.86299133 756.63999075 55.85935599 C755.12623093 55.86115265 755.12623093 55.86115265 753.58189011 55.86298561 C752.50417746 55.86033378 751.42646482 55.85768196 750.31609422 55.85494977 C746.673998 55.84723832 743.03193539 55.84669689 739.38983154 55.84609985 C736.76458237 55.84208647 734.13933381 55.83764845 731.51408601 55.8328203 C725.03593169 55.8217429 718.5577828 55.81609563 712.07962068 55.81211142 C704.32243186 55.80710342 696.56525356 55.79637616 688.80807095 55.78562968 C670.05848301 55.75999709 651.30889099 55.74496433 632.55929057 55.73211922 C626.3504059 55.72786514 620.14152152 55.72329944 613.93263721 55.7185359 C580.92926484 55.69327862 547.92589197 55.6712275 514.92251205 55.65880775 C507.27565255 55.65588636 499.62879306 55.65291885 491.98193359 55.64990234 C491.03189642 55.64953143 490.08185924 55.64916053 489.10303305 55.64877838 C458.29000292 55.63661873 427.47702985 55.60566749 396.66402652 55.56398082 C364.99470283 55.52121367 333.32540929 55.49456944 301.65605594 55.48933304 C297.18510466 55.48859257 292.71415343 55.48768188 288.24320221 55.48667526 C287.36326074 55.48648465 286.48331927 55.48629403 285.5767129 55.48609764 C271.4041039 55.48258134 257.23156628 55.46227109 243.05898352 55.43587863 C228.81923537 55.40976046 214.57956989 55.40199538 200.33980122 55.41297992 C191.87635475 55.41896529 183.41318827 55.41100024 174.94978407 55.38314908 C169.29822832 55.36592472 163.64686397 55.36682262 157.99530423 55.38251677 C154.77383683 55.39094523 151.55301311 55.3887012 148.33157381 55.36990531 C144.86105889 55.35088906 141.39195593 55.36252942 137.92147446 55.38196754 C136.92166591 55.36911832 135.92185736 55.3562691 134.89175159 55.34303051 C127.00934013 55.44043504 121.98448157 57.77990146 116.625 63.5625 Z " fill="#FEFEFE" transform="translate(0,0)"/>
<path d="M0 0 C1.38042353 -0.00789489 1.38042353 -0.00789489 2.78873441 -0.01594928 C4.30292299 -0.00935455 4.30292299 -0.00935455 5.84770125 -0.0026266 C6.92571349 -0.00583308 8.00372573 -0.00903955 9.11440501 -0.0123432 C12.75755488 -0.0207009 16.40054281 -0.01469875 20.04369563 -0.00884742 C22.66965794 -0.01186547 25.29561938 -0.0157532 27.92157924 -0.02043998 C33.64691293 -0.0292189 39.37221086 -0.03050811 45.09754962 -0.02693671 C53.61132981 -0.02163988 62.12507525 -0.02771473 70.63885167 -0.03601964 C86.72784793 -0.05128173 102.8168285 -0.05296242 118.90583048 -0.05049662 C131.3284475 -0.04866574 143.75105935 -0.05041924 156.17367572 -0.05472106 C157.95684954 -0.05532345 159.74002337 -0.05592465 161.5231972 -0.05652466 C164.21010413 -0.05743189 166.89701106 -0.05834055 169.58391799 -0.05925701 C194.57464496 -0.06769002 219.56536998 -0.07201986 244.55609816 -0.06785029 C245.97006025 -0.06761573 245.97006025 -0.06761573 247.41258723 -0.06737643 C252.19053008 -0.06657061 256.96847293 -0.06572484 261.74641577 -0.06486312 C262.6953706 -0.06469204 263.64432542 -0.06452095 264.62203646 -0.06434468 C266.54105526 -0.06399802 268.46007407 -0.06364949 270.37909287 -0.06329909 C300.2403025 -0.05794165 330.1014826 -0.06587153 359.96268672 -0.08433264 C393.49408415 -0.10503838 427.02546329 -0.11577804 460.55686748 -0.11175716 C464.13073601 -0.1113618 467.70460454 -0.11100025 471.27847308 -0.11065978 C472.59848642 -0.11052368 472.59848642 -0.11052368 473.9451667 -0.11038483 C487.24316743 -0.10921773 500.54114972 -0.11587574 513.83914584 -0.1264717 C528.95960999 -0.13850736 544.08003346 -0.1401016 559.2004982 -0.12768153 C567.66630428 -0.12103929 576.13201316 -0.12271531 584.59781152 -0.13627005 C590.24967592 -0.14449129 595.90146722 -0.14184739 601.55332563 -0.13029478 C604.77566373 -0.1240151 607.99777311 -0.12414107 611.22010741 -0.13415811 C614.68970797 -0.14419854 618.15879204 -0.1358979 621.62837142 -0.12288111 C622.63080698 -0.13019046 623.63324254 -0.13749981 624.66605493 -0.14503065 C631.7666145 -0.089512 636.65074763 0.85435091 642.17679805 5.626849 C647.41722157 11.74067644 647.85284801 15.87306224 647.76737422 23.73353845 C647.7678123 24.7876542 647.76825038 25.84176996 647.76870173 26.92782861 C647.76661408 30.40711848 647.74328346 33.88592469 647.7197668 37.36513025 C647.71417078 39.77936809 647.70990071 42.19360934 647.70690364 44.6078518 C647.69545543 50.95862007 647.66598813 57.30918215 647.6327917 63.65986902 C647.6020905 70.14167251 647.58839817 76.62350936 647.57328242 83.10536462 C647.54111867 95.82094995 647.48992234 108.53638232 647.42679805 121.251849 C643.79679805 121.251849 640.16679805 121.251849 636.42679805 121.251849 C636.40492427 118.69322107 636.40492427 118.69322107 636.38260859 116.08290368 C636.33093279 110.44291665 636.2656404 104.80319699 636.19108313 99.16346627 C636.1463825 95.74454628 636.10712618 92.32574534 636.0803625 88.90663415 C636.04934393 84.9745717 635.99455452 81.04301273 635.9385168 77.111224 C635.93212687 75.88506372 635.92573695 74.65890344 635.91915339 73.39558679 C635.89935923 72.25470605 635.87956507 71.11382531 635.85917109 69.93837243 C635.84251651 68.43279779 635.84251651 68.43279779 635.82552546 66.89680749 C635.3632341 63.83019755 634.57627358 62.4616681 632.42679805 60.251849 C629.61599832 59.31491575 627.92513114 59.12642853 625.01922679 59.12534916 C624.11045697 59.12258942 623.20168716 59.11982968 622.26537886 59.1169863 C621.26366567 59.11904162 620.26195247 59.12109694 619.22988433 59.12321454 C617.63097647 59.12058499 617.63097647 59.12058499 615.99976745 59.11790231 C612.39173718 59.11321292 608.78374669 59.11571533 605.17571467 59.11813623 C602.57735171 59.11626973 599.97898903 59.11396968 597.3806268 59.1112709 C591.71258408 59.10610747 586.04454991 59.10470133 580.37650508 59.10572702 C571.94805708 59.10724852 563.51961857 59.10309783 555.09117241 59.09785239 C539.1643866 59.08816767 523.23760399 59.08536774 507.31081558 59.08479533 C495.01496186 59.0843363 482.71910941 59.08228065 470.4232561 59.07909471 C466.88765478 59.07819721 463.35205346 59.07730739 459.81645215 59.07641983 C458.93756718 59.07619878 458.05868221 59.07597773 457.15316436 59.07574999 C432.42286062 59.0695935 407.69255733 59.06564966 382.9622528 59.06609327 C382.02934975 59.06610884 381.09644671 59.06612442 380.13527388 59.06614047 C375.40661216 59.06622359 370.67795045 59.06632263 365.94928873 59.06642518 C364.54051846 59.0664551 364.54051846 59.0664551 363.10328819 59.06648562 C361.20403654 59.06652606 359.30478489 59.06656786 357.40553324 59.06661101 C327.84661725 59.06722397 298.28771271 59.05971443 268.7288 59.04603845 C235.54316634 59.03069094 202.35754021 59.02207141 169.17190278 59.02300167 C165.6359871 59.02307631 162.10007143 59.02312501 158.56415576 59.02315599 C157.69348015 59.02316764 156.82280454 59.0231793 155.92574482 59.0231913 C141.89086427 59.02322213 127.85599364 59.01682582 113.82111604 59.00822372 C99.72583804 58.99976304 85.63057462 58.99874483 71.53529549 59.00533304 C63.15331025 59.00903922 54.77136919 59.00716463 46.38938859 58.9973907 C40.14282437 58.99072 33.89630776 58.99441492 27.64974581 59.00226393 C25.11344164 59.00381208 22.57713275 59.00193392 20.04083414 58.99640385 C16.61032664 58.98941566 13.18005208 58.99458045 9.74955291 59.00296003 C8.25049486 58.99550776 8.25049486 58.99550776 6.72115281 58.98790494 C5.35424281 58.99503115 5.35424281 58.99503115 3.95971847 59.00230134 C3.17487126 59.00221311 2.39002406 59.00212489 1.5813936 59.002034 C-0.87869259 59.28726917 -2.47745597 59.94506096 -4.57320195 61.251849 C-5.74879411 63.6030333 -5.72836658 65.07902814 -5.77852422 67.70155603 C-5.79846944 68.62235955 -5.81841466 69.54316308 -5.83896428 70.49186975 C-5.85567678 71.48774102 -5.87238927 72.4836123 -5.8896082 73.5096615 C-5.92077985 75.03694375 -5.92077985 75.03694375 -5.95258123 76.5950802 C-6.01809661 79.85559954 -6.07697098 83.11620106 -6.13570195 86.376849 C-6.17888528 88.58388883 -6.2224995 90.79092028 -6.26656133 92.99794275 C-6.37378 98.415824 -6.47554269 103.83378746 -6.57320195 109.251849 C-5.83642217 109.37737146 -5.09964238 109.50289392 -4.34053594 109.63222009 C-2.87595952 109.88866296 -2.87595952 109.88866296 -1.3817957 110.1502865 C-0.41814092 110.31705896 0.54551387 110.48383142 1.53837031 110.65565759 C18.15781158 114.08602489 32.57951646 126.39254953 42.28617305 139.84950525 C52.83348578 155.93178165 56.63600961 174.93681188 53.73929805 193.876849 C52.18903633 201.18522565 50.04975806 209.49430628 45.74711055 215.658099 C43.90564612 219.27565042 44.34671836 222.46452942 44.73929805 226.376849 C44.86163319 227.88836404 44.98142095 229.4000874 45.09867305 230.91200525 C45.18858516 232.01632898 45.18858516 232.01632898 45.28031367 233.14296228 C45.58355882 237.50868165 45.51179578 241.87918779 45.42679805 246.251849 C40.70273552 246.32804355 36.12387 246.2745639 31.42679805 245.751849 C30.58761836 245.66805993 29.74843867 245.58427087 28.8838293 245.49794275 C27.33747002 245.34306097 25.79263926 245.17101367 24.2510168 244.97450525 C17.95799812 244.50281646 13.51474525 246.80945863 8.02836055 249.7440365 C4.78726891 251.10093603 2.13503209 251.75654453 -1.29829961 252.34608728 C-2.28673864 252.51810663 -3.27517766 252.69012597 -4.29356939 252.86735803 C-5.42198751 253.05768106 -5.42198751 253.05768106 -6.57320195 253.251849 C-6.51435141 303.85259933 -6.43982772 354.45330563 -6.34421567 405.05400059 C-6.3329472 411.02473501 -6.32180879 416.99546966 -6.31075078 422.96620446 C-6.3085471 424.15489528 -6.30634342 425.3435861 -6.30407295 426.56829785 C-6.26867821 445.82801995 -6.24382637 465.08774201 -6.22285493 484.3474846 C-6.20111022 504.10241644 -6.16807246 523.85730599 -6.12450039 543.61220187 C-6.09796078 555.80692155 -6.08028242 568.00158852 -6.07385591 580.19633566 C-6.0686091 588.55306364 -6.05241594 596.90972521 -6.0275363 605.26641764 C-6.01349707 610.09137822 -6.00435952 614.91621988 -6.00819379 619.74120218 C-6.01159636 624.15672733 -6.00128349 628.57199817 -5.97996644 632.98747121 C-5.97468484 634.58648194 -5.97447796 636.185519 -5.97980633 637.78452958 C-5.98630613 639.95594023 -5.97443397 642.12650811 -5.95796281 644.29784852 C-5.95606421 645.50459973 -5.95416561 646.71135094 -5.95220947 647.95467037 C-5.38025509 652.93039165 -3.7365206 656.17577925 -0.07320195 659.564349 C3.54236228 662.00485485 6.28105339 662.38497197 10.54081172 662.45717126 C12.12388118 662.48744409 12.12388118 662.48744409 13.73893183 662.51832849 C14.84635737 662.53480432 15.95378291 662.55128015 17.0947668 662.56825525 C18.11397212 662.58690637 19.13317744 662.60555749 20.18326777 662.6247738 C23.99352232 662.69311473 27.80392072 662.75323583 31.61429805 662.814349 C40.13242305 662.958724 48.65054805 663.103099 57.42679805 663.251849 C57.42679805 631.241849 57.42679805 599.231849 57.42679805 566.251849 C61.71679805 566.251849 66.00679805 566.251849 70.42679805 566.251849 C70.42679805 598.261849 70.42679805 630.271849 70.42679805 663.251849 C232.12679805 663.251849 393.82679805 663.251849 560.42679805 663.251849 C560.42679805 631.241849 560.42679805 599.231849 560.42679805 566.251849 C564.38679805 566.251849 568.34679805 566.251849 572.42679805 566.251849 C572.42679805 598.261849 572.42679805 630.271849 572.42679805 663.251849 C580.71804805 663.148724 589.00929805 663.045599 597.55179805 662.939349 C600.15973262 662.91445398 602.76766719 662.88955896 605.45463008 662.86390954 C607.53130843 662.83161197 609.60797043 662.79823718 611.68461055 662.76356775 C612.75509639 662.75732385 613.82558223 662.75107995 614.92850703 662.74464685 C620.47780392 662.63770525 624.67463563 662.45129127 629.42679805 659.251849 C634.29585846 653.97703355 635.67579108 650.31910441 635.68851107 643.15350991 C635.69250714 642.43471247 635.6965032 641.71591502 635.70062035 640.97533584 C635.71163466 638.55419328 635.70838774 636.13327775 635.70527095 633.71211511 C635.71027154 631.96386969 635.71614663 630.2156266 635.72282368 628.46738678 C635.73866633 623.65354668 635.7420567 618.83976488 635.74347228 614.02590185 C635.7471589 608.8384493 635.76231065 603.65102901 635.77608699 598.46359521 C635.79838689 589.47275136 635.81338374 580.48191895 635.82345408 571.4910534 C635.8380247 558.49169133 635.86355695 545.49236908 635.89178537 532.49303034 C635.93728281 511.40369527 635.9738854 490.31435447 636.00492305 469.22499353 C636.03509651 448.73572548 636.06944123 428.24647146 636.10941523 407.75722009 C636.11187678 406.49477185 636.11433833 405.23232362 636.11687447 403.93161938 C636.12924884 397.59843964 636.14170542 391.26526006 636.15420288 384.93208057 C636.25781487 332.37202293 636.34700353 279.81194781 636.42679805 227.251849 C640.05679805 227.251849 643.68679805 227.251849 647.42679805 227.251849 C647.51833249 281.4959114 647.58882607 335.73996601 647.63105936 389.98409044 C647.63606225 396.38657584 647.64123954 402.78906109 647.64652461 409.19154626 C647.64809847 411.10349383 647.64809847 411.10349383 647.64970413 413.05406661 C647.66711434 433.69886239 647.69865545 454.34361367 647.73540923 474.98838305 C647.77280145 496.16824615 647.79503027 517.34808593 647.80315202 538.52798069 C647.80864335 551.59949331 647.82599387 564.67088014 647.85846391 577.74235404 C647.87959055 586.70319586 647.88600227 595.66397253 647.88080356 604.62483745 C647.87823892 609.79654423 647.88219951 614.96803103 647.90361995 620.1396988 C647.92309197 624.87551893 647.92406371 629.61097123 647.91039363 634.34680832 C647.90870421 636.05894299 647.91377285 637.77110066 647.92633078 639.48319011 C647.99673295 649.67512849 647.2503145 657.24346599 641.67679805 666.001849 C635.57706362 672.10158342 628.52001488 675.32535728 619.88041133 675.47889978 C617.66928578 675.47858486 615.45814359 675.46738899 613.24711055 675.4471615 C612.07920985 675.4443316 610.91130915 675.44150171 609.70801753 675.43858606 C605.98917213 675.42741873 602.27057028 675.40232004 598.55179805 675.376849 C596.02575986 675.36681476 593.4997179 675.35768968 590.97367305 675.34950525 C584.79121276 675.32919493 578.60927705 675.29003864 572.42679805 675.251849 C572.42679805 689.771849 572.42679805 704.291849 572.42679805 719.251849 C568.46679805 719.251849 564.50679805 719.251849 560.42679805 719.251849 C560.42679805 704.731849 560.42679805 690.211849 560.42679805 675.251849 C398.72679805 675.251849 237.02679805 675.251849 70.42679805 675.251849 C70.42679805 689.771849 70.42679805 704.291849 70.42679805 719.251849 C66.13679805 719.251849 61.84679805 719.251849 57.42679805 719.251849 C57.42679805 704.731849 57.42679805 690.211849 57.42679805 675.251849 C53.28375117 675.30985681 49.1407043 675.36786462 44.87211055 675.42763025 C41.54392194 675.45984287 38.21577809 675.4869361 34.88752192 675.51059991 C31.38759421 675.5368747 27.88828366 675.5719125 24.38871211 675.62904626 C20.36228829 675.69436114 16.33650588 675.71813793 12.30961055 675.74013025 C11.07067042 675.76593667 9.8317303 675.7917431 8.55524653 675.81833154 C0.75385361 675.82082736 -5.05200382 674.68946111 -11.57320195 670.251849 C-13.8271082 667.9002865 -13.8271082 667.9002865 -15.13570195 665.626849 C-15.81826055 664.49376306 -15.81826055 664.49376306 -16.5146082 663.3377865 C-18.57549258 659.27685567 -18.69764426 656.07606799 -18.69624978 651.57328779 C-18.69740363 650.88772328 -18.69855747 650.20215878 -18.69974628 649.4958196 C-18.70240857 647.18175008 -18.69789395 644.86774912 -18.69345647 642.5536831 C-18.69389225 640.88467442 -18.69476729 639.21566581 -18.69604564 637.54665756 C-18.69828925 632.94719111 -18.69427112 628.34774779 -18.68926758 623.74828428 C-18.68496136 618.79328049 -18.68640962 613.83827808 -18.68716985 608.88327295 C-18.68769498 600.29401413 -18.68454936 591.7047629 -18.67893201 583.11550599 C-18.67081548 570.69678125 -18.66820163 558.27806017 -18.66694402 545.85933306 C-18.66475374 525.71225622 -18.65809431 505.56518341 -18.64864141 485.41810876 C-18.63946667 465.8435647 -18.63238613 446.26902173 -18.62813359 426.69447595 C-18.62787087 425.48851791 -18.62760815 424.28255986 -18.62733746 423.04005764 C-18.62603245 416.99030476 -18.62476874 410.94055188 -18.62352556 404.89079899 C-18.6131537 354.67781286 -18.59553604 304.46483113 -18.57320195 254.251849 C-19.59551412 254.25837487 -19.59551412 254.25837487 -20.63847905 254.26503259 C-21.98361074 254.27010827 -21.98361074 254.27010827 -23.3559168 254.2752865 C-24.68760396 254.28181237 -24.68760396 254.28181237 -26.0461939 254.28847009 C-40.7990481 254.07467352 -55.47370819 246.652161 -66.57320195 237.251849 C-67.54257695 236.550599 -68.51195195 235.849349 -69.51070195 235.126849 C-84.51829515 222.32745753 -91.15647181 202.20018261 -92.84663945 183.173724 C-93.50593998 162.58326132 -85.42582868 144.26490518 -71.57320195 129.251849 C-60.98780079 118.31723872 -45.81778244 109.94569127 -30.57320195 108.251849 C-28.50376346 108.2264367 -26.43403964 108.2203672 -24.36446172 108.22865564 C-23.28084859 108.23200418 -22.19723546 108.23535272 -21.08078557 108.23880273 C-20.25328298 108.243108 -19.42578038 108.24741327 -18.57320195 108.251849 C-18.58430501 107.09197473 -18.59540807 105.93210046 -18.60684758 104.73707849 C-18.70833387 93.79084583 -18.78322044 82.844709 -18.83226281 71.89811212 C-18.85832399 66.2707073 -18.89365913 60.64368318 -18.95039922 55.01649743 C-19.00484211 49.58295224 -19.03464866 44.14977255 -19.04758817 38.71597558 C-19.05680594 36.64596062 -19.07480631 34.575965 -19.10185224 32.5061062 C-19.13830538 29.59995519 -19.14314046 26.69530229 -19.14082891 23.78895837 C-19.15880529 22.93875116 -19.17678167 22.08854394 -19.19530278 21.21257287 C-19.14259804 15.06337718 -17.42515706 11.04234491 -13.57320195 6.251849 C-9.38633779 2.37134075 -5.76955221 0.00261485 0 0 Z " fill="#486971" transform="translate(131.57320195436478,55.74815100431442)"/>
<path d="M0 0 C15.61618553 12.23641135 26.31325457 29.88354907 28.8125 49.75 C29.47006998 64.23183179 28.7402664 80.82557186 20.1328125 93.15625 C18.29134807 96.77380142 18.73242032 99.96268043 19.125 103.875 C19.24733514 105.38651505 19.3671229 106.89823841 19.484375 108.41015625 C19.54431641 109.14637207 19.60425781 109.88258789 19.66601562 110.64111328 C19.96926078 115.00683266 19.89749773 119.3773388 19.8125 123.75 C15.08843747 123.82619456 10.50957196 123.7727149 5.8125 123.25 C4.97332031 123.16621094 4.13414062 123.08242188 3.26953125 122.99609375 C1.72317197 122.84121198 0.17834121 122.66916468 -1.36328125 122.47265625 C-7.65629992 122.00096746 -12.0995528 124.30760964 -17.5859375 127.2421875 C-20.82702914 128.59908704 -23.47926595 129.25469553 -26.91259766 129.84423828 C-27.90103668 130.01625763 -28.88947571 130.18827698 -29.90786743 130.36550903 C-31.03628555 130.55583206 -31.03628555 130.55583206 -32.1875 130.75 C-32.12864946 181.35075033 -32.05412576 231.95145664 -31.95851372 282.5521516 C-31.94724524 288.52288601 -31.93610684 294.49362066 -31.92504883 300.46435547 C-31.92284514 301.65304629 -31.92064146 302.8417371 -31.918371 304.06644885 C-31.88297626 323.32617096 -31.85812442 342.58589302 -31.83715298 361.84563561 C-31.81540826 381.60056745 -31.78237051 401.35545699 -31.73879844 421.11035287 C-31.71225882 433.30507256 -31.69458047 445.49973952 -31.68815396 457.69448666 C-31.68290715 466.05121464 -31.66671399 474.40787622 -31.64183434 482.76456864 C-31.62779512 487.58952923 -31.61865756 492.41437088 -31.62249184 497.23935318 C-31.62589441 501.65487833 -31.61558153 506.07014917 -31.59426448 510.48562221 C-31.58898288 512.08463295 -31.58877601 513.68367 -31.59410437 515.28268059 C-31.60060417 517.45409124 -31.58873202 519.62465912 -31.57226086 521.79599953 C-31.57036225 523.00275074 -31.56846365 524.20950195 -31.56650752 525.45282137 C-30.99455313 530.42854265 -29.35081864 533.67393025 -25.6875 537.0625 C-22.07193576 539.50300586 -19.33324465 539.88312297 -15.07348633 539.95532227 C-13.49041687 539.98559509 -13.49041687 539.98559509 -11.87536621 540.01647949 C-10.76794067 540.03295532 -9.66051514 540.04943115 -8.51953125 540.06640625 C-7.50032593 540.08505737 -6.48112061 540.1037085 -5.43103027 540.1229248 C-1.62077572 540.19126574 2.18962267 540.25138683 6 540.3125 C14.518125 540.456875 23.03625 540.60125 31.8125 540.75 C31.8125 508.74 31.8125 476.73 31.8125 443.75 C36.1025 443.75 40.3925 443.75 44.8125 443.75 C44.8125 475.76 44.8125 507.77 44.8125 540.75 C206.5125 540.75 368.2125 540.75 534.8125 540.75 C534.8125 508.74 534.8125 476.73 534.8125 443.75 C538.7725 443.75 542.7325 443.75 546.8125 443.75 C546.8125 475.76 546.8125 507.77 546.8125 540.75 C555.10375 540.646875 563.395 540.54375 571.9375 540.4375 C574.54543457 540.41260498 577.15336914 540.38770996 579.84033203 540.36206055 C581.91701039 540.32976298 583.99367239 540.29638818 586.0703125 540.26171875 C587.14079834 540.25547485 588.21128418 540.24923096 589.31420898 540.24279785 C594.86350588 540.13585625 599.06033758 539.94944228 603.8125 536.75 C608.68156041 531.47518456 610.06149304 527.81725541 610.07421303 520.65166092 C610.07820909 519.93286347 610.08220515 519.21406603 610.08632231 518.47348684 C610.09733661 516.05234429 610.09408969 513.63142876 610.0909729 511.21026611 C610.09597349 509.4620207 610.10184859 507.7137776 610.10852563 505.96553779 C610.12436829 501.15169769 610.12775866 496.33791588 610.12917423 491.52405286 C610.13286085 486.3366003 610.1480126 481.14918001 610.16178894 475.96174622 C610.18408885 466.97090236 610.1990857 457.98006995 610.20915604 448.98920441 C610.22372665 435.98984233 610.24925891 422.99052009 610.27748732 409.99118134 C610.32298476 388.90184627 610.35958735 367.81250548 610.390625 346.72314453 C610.42079846 326.23387649 610.45514319 305.74462246 610.49511719 285.25537109 C610.49757874 283.99292286 610.50004028 282.73047462 610.50257643 281.42977038 C610.51495079 275.09659064 610.52740737 268.76341107 610.53990483 262.43023157 C610.64351682 209.87017394 610.73270548 157.31009882 610.8125 104.75 C614.4425 104.75 618.0725 104.75 621.8125 104.75 C621.90403444 158.99406241 621.97452802 213.23811702 622.01676132 267.48224145 C622.02176421 273.88472685 622.02694149 280.28721209 622.03222656 286.68969727 C622.03380043 288.60164484 622.03380043 288.60164484 622.03540608 290.55221761 C622.0528163 311.1970134 622.08435741 331.84176468 622.12111118 352.48653405 C622.1585034 373.66639715 622.18073222 394.84623693 622.18885398 416.02613169 C622.1943453 429.09764431 622.21169582 442.16903114 622.24416587 455.24050505 C622.2652925 464.20134686 622.27170422 473.16212354 622.26650551 482.12298845 C622.26394087 487.29469524 622.26790147 492.46618203 622.2893219 497.63784981 C622.30879392 502.37366994 622.30976567 507.10912223 622.29609558 511.84495933 C622.29440617 513.557094 622.2994748 515.26925167 622.31203273 516.98134112 C622.3824349 527.17327949 621.63601646 534.741617 616.0625 543.5 C609.96276557 549.59973443 602.90571683 552.82350828 594.26611328 552.97705078 C592.05498773 552.97673586 589.84384555 552.96554 587.6328125 552.9453125 C586.4649118 552.9424826 585.29701111 552.93965271 584.09371948 552.93673706 C580.37487409 552.92556973 576.65627223 552.90047104 572.9375 552.875 C570.41146182 552.86496576 567.88541985 552.85584069 565.359375 552.84765625 C559.17691471 552.82734593 552.994979 552.78818964 546.8125 552.75 C546.8125 567.27 546.8125 581.79 546.8125 596.75 C542.8525 596.75 538.8925 596.75 534.8125 596.75 C534.8125 582.23 534.8125 567.71 534.8125 552.75 C373.1125 552.75 211.4125 552.75 44.8125 552.75 C44.8125 567.27 44.8125 581.79 44.8125 596.75 C40.5225 596.75 36.2325 596.75 31.8125 596.75 C31.8125 582.23 31.8125 567.71 31.8125 552.75 C27.66945312 552.80800781 23.52640625 552.86601563 19.2578125 552.92578125 C15.9296239 552.95799387 12.60148004 552.98508711 9.27322388 553.00875092 C5.77329616 553.0350257 2.27398561 553.0700635 -1.22558594 553.12719727 C-5.25200976 553.19251215 -9.27779216 553.21628893 -13.3046875 553.23828125 C-14.54362762 553.26408768 -15.78256775 553.2898941 -17.05905151 553.31648254 C-24.86044444 553.31897836 -30.66630187 552.18761211 -37.1875 547.75 C-39.44140625 545.3984375 -39.44140625 545.3984375 -40.75 543.125 C-41.43255859 541.99191406 -41.43255859 541.99191406 -42.12890625 540.8359375 C-44.18979062 536.77500667 -44.31194231 533.574219 -44.31054783 529.07143879 C-44.31170167 528.38587429 -44.31285552 527.70030979 -44.31404433 526.9939706 C-44.31670662 524.67990109 -44.31219199 522.36590013 -44.30775452 520.05183411 C-44.3081903 518.38282543 -44.30906533 516.71381681 -44.31034368 515.04480857 C-44.31258729 510.44534211 -44.30856917 505.84589879 -44.30356562 501.24643528 C-44.2992594 496.2914315 -44.30070767 491.33642908 -44.3014679 486.38142395 C-44.30199302 477.79216514 -44.2988474 469.2029139 -44.29323006 460.613657 C-44.28511353 448.19493225 -44.28249968 435.77621118 -44.28124207 423.35748406 C-44.27905179 403.21040722 -44.27239236 383.06333442 -44.26293945 362.91625977 C-44.25376471 343.3417157 -44.24668418 323.76717273 -44.24243164 304.19262695 C-44.24216892 302.98666891 -44.24190619 301.78071087 -44.24163551 300.53820864 C-44.2403305 294.48845576 -44.23906679 288.43870288 -44.23782361 282.38894999 C-44.22745175 232.17596387 -44.20983409 181.96298213 -44.1875 131.75 C-45.20981216 131.75652588 -45.20981216 131.75652588 -46.2527771 131.76318359 C-47.59790878 131.76825928 -47.59790878 131.76825928 -48.97021484 131.7734375 C-50.30190201 131.77996338 -50.30190201 131.77996338 -51.66049194 131.78662109 C-66.41334614 131.57282452 -81.08800624 124.150312 -92.1875 114.75 C-93.156875 114.04875 -94.12625 113.3475 -95.125 112.625 C-110.13259319 99.82560853 -116.77076986 79.69833361 -118.4609375 60.671875 C-119.12023803 40.08141232 -111.04012672 21.76305619 -97.1875 6.75 C-71.265419 -20.02724243 -29.45454968 -21.03366457 0 0 Z " fill="#718F96" transform="translate(157.1875,178.25)"/>
<path d="M0 0 C0.33 0 0.66 0 1 0 C1 34.65 1 69.3 1 105 C10.9 105 20.8 105 31 105 C49.63574973 109.65893743 61.97712446 115.85439724 72.04443359 132.27441406 C78.92707626 144.70326392 80.02606649 160.40876729 76.1640625 173.92578125 C70.44441879 189.0310148 61.11052563 199.08016223 46.84375 206.37109375 C31.82208367 212.73698283 17.97299135 210 1 210 C1 350.25 1 490.5 1 635 C0.67 635 0.34 635 0 635 C0 495.08 0 355.16 0 211 C-3.63 211 -7.26 211 -11 211 C-11 350.59 -11 490.18 -11 634 C-11.33 634 -11.66 634 -12 634 C-12 494.08 -12 354.16 -12 210 C-26.19 210 -40.38 210 -55 210 C-68 206 -68 206 -71 205 C-73.17520294 205.22754877 -73.17520294 205.22754877 -75.52734375 205.77734375 C-76.40197266 205.96103516 -77.27660156 206.14472656 -78.17773438 206.33398438 C-79.54381836 206.63272461 -79.54381836 206.63272461 -80.9375 206.9375 C-82.7375259 207.32513884 -84.53828709 207.70938256 -86.33984375 208.08984375 C-87.53661743 208.35075806 -87.53661743 208.35075806 -88.75756836 208.61694336 C-91 209 -91 209 -95 209 C-94.62140144 204.11807114 -94.238046 199.28858433 -93.34765625 194.46875 C-92.13145375 187.84800269 -91.3320541 183.19464134 -94.859375 177.2578125 C-99.77207989 167.53334871 -99.74734787 153.34297636 -97.125 142.9375 C-92.445024 128.89757199 -83.44331578 118.20365619 -70.75 110.625 C-57.90334668 104.30776609 -44.5785498 104.612827 -30.625 104.8125 C-21.405625 104.9053125 -21.405625 104.9053125 -12 105 C-12 86.19 -12 67.38 -12 48 C-11.67 48 -11.34 48 -11 48 C-11 66.81 -11 85.62 -11 105 C-7.37 105 -3.74 105 0 105 C0 70.35 0 35.7 0 0 Z " fill="#E6E8E9" transform="translate(779,72)"/>
<path d="M0 0 C15.61618553 12.23641135 26.31325457 29.88354907 28.8125 49.75 C29.47006998 64.23183179 28.7402664 80.82557186 20.1328125 93.15625 C18.29134807 96.77380142 18.73242032 99.96268043 19.125 103.875 C19.24733514 105.38651505 19.3671229 106.89823841 19.484375 108.41015625 C19.54431641 109.14637207 19.60425781 109.88258789 19.66601562 110.64111328 C19.96926078 115.00683266 19.89749773 119.3773388 19.8125 123.75 C15.08843747 123.82619456 10.50957196 123.7727149 5.8125 123.25 C4.97332031 123.16621094 4.13414062 123.08242188 3.26953125 122.99609375 C1.72317197 122.84121198 0.17834121 122.66916468 -1.36328125 122.47265625 C-7.74273521 121.99448877 -12.17619061 124.4592314 -17.82421875 127.21484375 C-32.71905198 134.0135307 -52.78203615 134.0074202 -68.1875 128.75 C-76.85121326 125.18172488 -85.01914351 120.82097846 -92.1875 114.75 C-93.156875 114.04875 -94.12625 113.3475 -95.125 112.625 C-110.13259319 99.82560853 -116.77076986 79.69833361 -118.4609375 60.671875 C-119.12023803 40.08141232 -111.04012672 21.76305619 -97.1875 6.75 C-71.265419 -20.02724243 -29.45454968 -21.03366457 0 0 Z " fill="#72C86C" transform="translate(157.1875,178.25)"/>
<path d="M0 0 C12.42063894 10.53223458 18.62631683 24.35523138 20.8125 40.3125 C21.07128821 43.85148403 21.22926785 47.39225064 21.375 50.9375 C21.4167334 51.92806396 21.4584668 52.91862793 21.50146484 53.93920898 C21.77524212 60.73838382 21.99372915 67.50816906 21.8125 74.3125 C21.79993164 75.05790039 21.78736328 75.80330078 21.77441406 76.57128906 C21.37422022 97.73255956 18.56926418 118.61016333 2.8125 134.3125 C-13.97176966 147.42285156 -32.97448699 147.79649443 -53.47070312 146.12646484 C-65.433668 144.60789821 -76.81995661 137.79821211 -84.1875 128.3125 C-93.49732826 114.45043954 -97.33807101 100.46941175 -97.35546875 83.80859375 C-97.35879715 82.69372086 -97.36212555 81.57884796 -97.36555481 80.43019104 C-97.37060934 78.07252412 -97.37296359 75.71485007 -97.37280273 73.35717773 C-97.37497757 69.78682324 -97.39311711 66.21678379 -97.41210938 62.64648438 C-97.41504609 60.34635521 -97.41702902 58.0462246 -97.41796875 55.74609375 C-97.42515427 54.69457626 -97.43233978 53.64305878 -97.43974304 52.55967712 C-97.38455892 34.25128478 -92.92672425 18.46468062 -81.1875 4.3125 C-61.1632581 -15.09979563 -22.19703209 -16.77256998 0 0 Z " fill="#2EB6FF" transform="translate(484.1875,296.6875)"/>
<path d="M0 0 C2.03252331 0.00316934 4.06360274 -0.02035132 6.09594727 -0.0456543 C8.01697266 -0.04662109 8.01697266 -0.04662109 9.97680664 -0.04760742 C11.15057861 -0.05058838 12.32435059 -0.05356934 13.53369141 -0.05664062 C16.8412434 0.36233245 17.47983309 0.76235461 19.47290039 3.31567383 C19.75362864 6.28468701 19.85158431 9.0414713 19.81347656 12.00976562 C19.81413368 13.34178513 19.81413368 13.34178513 19.81480408 14.70071411 C19.81271229 17.63899644 19.78936279 20.57670979 19.76586914 23.51489258 C19.76027458 25.5508442 19.75600382 27.58679986 19.75300598 29.62275696 C19.74154625 34.98388806 19.71206926 40.3447757 19.67889404 45.70581055 C19.64821753 51.17534085 19.63450582 56.64491044 19.61938477 62.11450195 C19.58720072 72.84833293 19.53599066 83.58198314 19.47290039 94.31567383 C20.12363525 94.29996338 20.77437012 94.28425293 21.44482422 94.26806641 C24.39159463 94.20572734 27.33822637 94.16668699 30.28540039 94.12817383 C31.30956055 94.10303711 32.3337207 94.07790039 33.38891602 94.05200195 C34.37182617 94.04233398 35.35473633 94.03266602 36.36743164 94.02270508 C37.27340088 94.00699463 38.17937012 93.99128418 39.11279297 93.97509766 C41.92716106 94.38122608 42.78816008 95.06778205 44.47290039 97.31567383 C44.86108398 99.33691406 44.86108398 99.33691406 44.87133789 101.62426758 C44.87520508 102.4537793 44.87907227 103.28329102 44.88305664 104.13793945 C44.8656543 105.43248047 44.8656543 105.43248047 44.84790039 106.75317383 C44.85950195 107.61233398 44.87110352 108.47149414 44.88305664 109.35668945 C44.87918945 110.18749023 44.87532227 111.01829102 44.87133789 111.87426758 C44.8679541 112.63022217 44.86457031 113.38617676 44.86108398 114.16503906 C44.35280511 116.9810319 43.52218845 118.32048318 41.47290039 120.31567383 C39.11279297 120.76977539 39.11279297 120.76977539 36.36743164 120.70629883 C34.89306641 120.68696289 34.89306641 120.68696289 33.38891602 120.66723633 C32.36475586 120.6337207 31.3405957 120.60020508 30.28540039 120.56567383 C29.24963867 120.54762695 28.21387695 120.52958008 27.14672852 120.51098633 C24.58785756 120.4638182 22.03084197 120.3980144 19.47290039 120.31567383 C19.48337402 121.20875244 19.49384766 122.10183105 19.50463867 123.02197266 C19.53873631 126.3374286 19.56380676 129.65269804 19.58276367 132.96826172 C19.59281739 134.40286195 19.60646233 135.83744171 19.6237793 137.27197266 C19.64805588 139.3347682 19.65938958 141.39729267 19.66821289 143.46020508 C19.67868652 144.70133057 19.68916016 145.94245605 19.69995117 147.22119141 C19.47290039 150.31567383 19.47290039 150.31567383 17.47290039 153.31567383 C14.98266602 153.68798828 14.98266602 153.68798828 11.87915039 153.67895508 C10.76668945 153.67831055 9.65422852 153.67766602 8.50805664 153.67700195 C7.34145508 153.66088867 6.17485352 153.64477539 4.97290039 153.62817383 C3.80629883 153.63139648 2.63969727 153.63461914 1.43774414 153.63793945 C-7.26026743 153.58250601 -7.26026743 153.58250601 -9.52709961 151.31567383 C-9.75415039 148.24291992 -9.75415039 148.24291992 -9.72241211 144.33911133 C-9.71958221 143.65386383 -9.71675232 142.96861633 -9.71383667 142.26260376 C-9.70263242 140.07178356 -9.6775282 137.88137067 -9.65209961 135.69067383 C-9.64207009 134.20630473 -9.63294419 132.72192923 -9.62475586 131.23754883 C-9.60269255 127.59679122 -9.56816137 123.95627227 -9.52709961 120.31567383 C-10.87013908 120.32566658 -10.87013908 120.32566658 -12.24031067 120.33586121 C-20.6716981 120.39593282 -29.10301382 120.44162811 -37.53456593 120.47111034 C-41.86949086 120.48677694 -46.20423921 120.50803317 -50.5390625 120.54199219 C-54.72118049 120.57455047 -58.90312846 120.59251935 -63.08536339 120.60030556 C-64.68220383 120.60585545 -66.2790348 120.61669289 -67.87580299 120.632864 C-70.10979055 120.65459191 -72.34307249 120.65764279 -74.57714844 120.65625 C-75.84955887 120.66291183 -77.1219693 120.66957367 -78.43293762 120.67643738 C-81.52709961 120.31567383 -81.52709961 120.31567383 -83.43621826 118.92347717 C-85.6850751 115.6089833 -84.99515271 111.43202984 -84.96459961 107.56567383 C-84.98458008 106.68395508 -85.00456055 105.80223633 -85.02514648 104.89379883 C-85.02081465 99.07180979 -83.99962135 95.07133064 -80.52709961 90.31567383 C-79.81855835 89.31141357 -79.81855835 89.31141357 -79.09570312 88.28686523 C-77.4553619 86.00333825 -75.77741676 83.75181114 -74.08959961 81.50317383 C-72.83105941 79.81100648 -71.57326407 78.11828492 -70.31616211 76.42504883 C-69.68226563 75.57233398 -69.04836914 74.71961914 -68.39526367 73.84106445 C-65.55424427 70.00056462 -62.7563653 66.12955948 -59.96459961 62.25317383 C-59.43294189 61.51542725 -58.90128418 60.77768066 -58.35351562 60.01757812 C-57.28073849 58.5284315 -56.20822789 57.03909284 -55.13598633 55.54956055 C-52.43697839 51.80207608 -49.73175539 48.05908304 -47.02709961 44.31567383 C-43.1981781 39.01550985 -39.37169509 33.71360458 -35.54833984 28.40942383 C-33.92797991 26.16403702 -32.30400609 23.9213023 -30.67944336 21.67895508 C-28.57290804 18.77036342 -26.48395926 15.850211 -24.40600586 12.92114258 C-23.42568555 11.55254665 -22.44522359 10.18405218 -21.46459961 8.81567383 C-21.0235791 8.18636963 -20.58255859 7.55706543 -20.12817383 6.90869141 C-14.54479253 -0.8351969 -9.03682427 -0.02958582 0 0 Z " fill="#2EB7FF" transform="translate(322.527099609375,287.684326171875)"/>
<path d="M0 0 C1.92295898 -0.00386719 1.92295898 -0.00386719 3.88476562 -0.0078125 C4.54919678 -0.00362305 5.21362793 0.00056641 5.89819336 0.00488281 C7.9304782 0.01560856 9.96188279 0.00496127 11.99414062 -0.0078125 C13.91516602 -0.00394531 13.91516602 -0.00394531 15.875 0 C17.04877197 0.00225586 18.22254395 0.00451172 19.43188477 0.00683594 C22.37109375 0.265625 22.37109375 0.265625 25.37109375 2.265625 C25.65718306 5.22607999 25.74911461 7.9763963 25.71166992 10.93798828 C25.71232704 12.2844191 25.71232704 12.2844191 25.71299744 13.65805054 C25.7109022 16.63423176 25.68753662 19.60985431 25.6640625 22.5859375 C25.65846916 24.64573865 25.65419783 26.70554378 25.65119934 28.76535034 C25.63972998 34.19389818 25.6102448 39.62220625 25.5770874 45.05065918 C25.54643156 50.5871252 25.53270361 56.12362987 25.51757812 61.66015625 C25.48537711 72.52875133 25.43415553 83.39716825 25.37109375 94.265625 C26.02182861 94.24991455 26.67256348 94.2342041 27.34301758 94.21801758 C30.28978799 94.15567851 33.23641973 94.11663816 36.18359375 94.078125 C37.20775391 94.05298828 38.23191406 94.02785156 39.28710938 94.00195312 C40.27001953 93.99228516 41.25292969 93.98261719 42.265625 93.97265625 C43.17159424 93.9569458 44.07756348 93.94123535 45.01098633 93.92504883 C47.37109375 94.265625 47.37109375 94.265625 49.16592407 95.65087891 C50.76520003 97.79366813 50.75833353 99.17053179 50.76953125 101.828125 C50.77339844 102.70726562 50.77726563 103.58640625 50.78125 104.4921875 C50.76384766 105.86503906 50.76384766 105.86503906 50.74609375 107.265625 C50.75769531 108.18085938 50.76929688 109.09609375 50.78125 110.0390625 C50.77738281 110.91820312 50.77351562 111.79734375 50.76953125 112.703125 C50.76614746 113.50621094 50.76276367 114.30929687 50.75927734 115.13671875 C50.37109375 117.265625 50.37109375 117.265625 49.1652832 119.0324707 C46.75335714 120.69019809 45.17683744 120.6090772 42.265625 120.55859375 C41.28271484 120.54892578 40.29980469 120.53925781 39.28710938 120.52929688 C38.26294922 120.50416016 37.23878906 120.47902344 36.18359375 120.453125 C35.14783203 120.43958984 34.11207031 120.42605469 33.04492188 120.41210938 C30.48645676 120.37673889 27.92903595 120.32738044 25.37109375 120.265625 C25.38156738 121.1942334 25.39204102 122.1228418 25.40283203 123.07958984 C25.43688579 126.5198819 25.46197868 129.95999527 25.48095703 133.40039062 C25.49102418 134.8903282 25.50467893 136.38024597 25.52197266 137.87011719 C25.54619028 140.00981528 25.55756939 142.14925253 25.56640625 144.2890625 C25.57687988 145.57731934 25.58735352 146.86557617 25.59814453 148.19287109 C25.37109375 151.265625 25.37109375 151.265625 23.37109375 153.265625 C20.88085938 153.52441406 20.88085938 153.52441406 17.77734375 153.53125 C16.66488281 153.53382813 15.55242187 153.53640625 14.40625 153.5390625 C13.23964844 153.53132812 12.07304688 153.52359375 10.87109375 153.515625 C9.70449219 153.52335938 8.53789063 153.53109375 7.3359375 153.5390625 C6.22347656 153.53648437 5.11101562 153.53390625 3.96484375 153.53125 C2.94068359 153.52899414 1.91652344 153.52673828 0.86132812 153.52441406 C-1.62890625 153.265625 -1.62890625 153.265625 -3.62890625 151.265625 C-3.85595703 148.19287109 -3.85595703 148.19287109 -3.82421875 144.2890625 C-3.82138885 143.603815 -3.81855896 142.9185675 -3.81564331 142.21255493 C-3.80443906 140.02173473 -3.77933484 137.83132184 -3.75390625 135.640625 C-3.74387673 134.1562559 -3.73475083 132.6718804 -3.7265625 131.1875 C-3.70449919 127.54674239 -3.66996801 123.90622344 -3.62890625 120.265625 C-4.5242659 120.27450745 -5.41962555 120.28338989 -6.34211731 120.2925415 C-14.77348064 120.37263676 -23.2047165 120.43356355 -31.63637257 120.47287369 C-35.97136963 120.49376283 -40.30605277 120.52210419 -44.64086914 120.56738281 C-48.82300088 120.610794 -53.00483039 120.63475211 -57.18717003 120.64513397 C-58.78403165 120.65253392 -60.38087643 120.66698422 -61.97760963 120.68854523 C-64.21175713 120.71751785 -66.44465044 120.7215838 -68.67895508 120.71972656 C-69.95136551 120.72860901 -71.22377594 120.73749146 -72.53474426 120.74664307 C-75.62890625 120.265625 -75.62890625 120.265625 -77.53604126 118.3657074 C-79.44022062 114.70657879 -79.18199182 111.1294686 -79.19140625 107.078125 C-79.22814453 106.26537109 -79.26488281 105.45261719 -79.30273438 104.61523438 C-79.35287493 97.61227018 -76.83417642 93.68956777 -72.62890625 88.265625 C-71.63417145 86.87383694 -70.6432259 85.47933218 -69.65625 84.08203125 C-68.62797316 82.66285021 -67.59796683 81.24492098 -66.56640625 79.828125 C-65.41922592 78.24612632 -64.27209181 76.66409412 -63.125 75.08203125 C-62.25464111 73.88344482 -62.25464111 73.88344482 -61.36669922 72.66064453 C-58.61414525 68.86708532 -55.87184812 65.06613675 -53.12890625 61.265625 C-52.04562645 59.76558634 -50.96229301 58.26558641 -49.87890625 56.765625 C-49.34265625 56.023125 -48.80640625 55.280625 -48.25390625 54.515625 C-43.37890625 47.765625 -43.37890625 47.765625 -41.75317383 45.51464844 C-40.67223434 44.01793799 -39.59134224 42.52119332 -38.51049805 41.02441406 C-35.76593085 37.22379863 -33.02048659 33.42382202 -30.2734375 29.625 C-29.72099365 28.86058594 -29.1685498 28.09617187 -28.59936523 27.30859375 C-27.5048308 25.79484506 -26.40930993 24.28180907 -25.31274414 22.76953125 C-22.75222895 19.23292967 -20.21464895 15.68447306 -17.73046875 12.09375 C-17.05310669 11.12163574 -17.05310669 11.12163574 -16.36206055 10.12988281 C-15.52537886 8.92601974 -14.69558396 7.71732745 -13.87426758 6.50292969 C-9.88702809 0.78485595 -6.85465645 0.01316124 0 0 Z " fill="#2EB7FF" transform="translate(603.62890625,287.734375)"/>
<path d="M0 0 C3.63 0 7.26 0 11 0 C11.09153444 54.24406241 11.16202802 108.48811702 11.20426132 162.73224145 C11.20926421 169.13472685 11.21444149 175.53721209 11.21972656 181.93969727 C11.2207758 183.21432898 11.22182505 184.48896069 11.22290608 185.80221761 C11.2403163 206.4470134 11.27185741 227.09176468 11.30861118 247.73653405 C11.3460034 268.91639715 11.36823222 290.09623693 11.37635398 311.27613169 C11.3818453 324.34764431 11.39919582 337.41903114 11.43166587 350.49050505 C11.4527925 359.45134686 11.45920422 368.41212354 11.45400551 377.37298845 C11.45144087 382.54469524 11.45540147 387.71618203 11.4768219 392.88784981 C11.49629392 397.62366994 11.49726567 402.35912223 11.48359558 407.09495933 C11.48190617 408.807094 11.4869748 410.51925167 11.49953273 412.23134112 C11.5699349 422.42327949 10.82351646 429.991617 5.25 438.75 C-0.84973443 444.84973443 -7.90678317 448.07350828 -16.54638672 448.22705078 C-18.75751227 448.22673586 -20.96865445 448.21554 -23.1796875 448.1953125 C-24.3475882 448.1924826 -25.51548889 448.18965271 -26.71878052 448.18673706 C-30.43762591 448.17556973 -34.15622777 448.15047104 -37.875 448.125 C-40.40103818 448.11496576 -42.92708015 448.10584069 -45.453125 448.09765625 C-51.63558529 448.07734593 -57.817521 448.03818964 -64 448 C-64 462.52 -64 477.04 -64 492 C-67.96 492 -71.92 492 -76 492 C-76 441.51 -76 391.02 -76 339 C-72.04 339 -68.08 339 -64 339 C-64 371.01 -64 403.02 -64 436 C-51.563125 435.8453125 -51.563125 435.8453125 -38.875 435.6875 C-36.26706543 435.66260498 -33.65913086 435.63770996 -30.97216797 435.61206055 C-28.89548961 435.57976298 -26.81882761 435.54638818 -24.7421875 435.51171875 C-23.67170166 435.50547485 -22.60121582 435.49923096 -21.49829102 435.49279785 C-15.94899412 435.38585625 -11.75216242 435.19944228 -7 432 C-2.13093959 426.72518456 -0.75100696 423.06725541 -0.73828697 415.90166092 C-0.73429091 415.18286347 -0.73029485 414.46406603 -0.72617769 413.72348684 C-0.71516339 411.30234429 -0.71841031 408.88142876 -0.7215271 406.46026611 C-0.71652651 404.7120207 -0.71065141 402.9637776 -0.70397437 401.21553779 C-0.68813171 396.40169769 -0.68474134 391.58791588 -0.68332577 386.77405286 C-0.67963915 381.5866003 -0.6644874 376.39918001 -0.65071106 371.21174622 C-0.62841115 362.22090236 -0.6134143 353.23006995 -0.60334396 344.23920441 C-0.58877335 331.23984233 -0.56324109 318.24052009 -0.53501268 305.24118134 C-0.48951524 284.15184627 -0.45291265 263.06250548 -0.421875 241.97314453 C-0.39170154 221.48387649 -0.35735681 200.99462246 -0.31738281 180.50537109 C-0.31492126 179.24292286 -0.31245972 177.98047462 -0.30992357 176.67977038 C-0.29754921 170.34659064 -0.28509263 164.01341107 -0.27259517 157.68023157 C-0.16898318 105.12017394 -0.07979452 52.56009882 0 0 Z " fill="#65848B" transform="translate(768,283)"/>
<path d="M0 0 C0.00146521 1.2598164 0.00146521 1.2598164 0.00296003 2.54508364 C0.06120273 52.29747223 0.13497725 102.04981706 0.22898628 151.8021516 C0.24025476 157.77288601 0.25139316 163.74362066 0.26245117 169.71435547 C0.26465486 170.90304629 0.26685854 172.0917371 0.269129 173.31644885 C0.30452374 192.57617096 0.32937558 211.83589302 0.35034702 231.09563561 C0.37209174 250.85056745 0.40512949 270.60545699 0.44870156 290.36035287 C0.47524118 302.55507256 0.49291953 314.74973952 0.49934604 326.94448666 C0.50459285 335.30121464 0.52078601 343.65787622 0.54566566 352.01456864 C0.55970488 356.83952923 0.56884244 361.66437088 0.56500816 366.48935318 C0.56160559 370.90487833 0.57191847 375.32014917 0.59323552 379.73562221 C0.59851712 381.33463295 0.59872399 382.93367 0.59339563 384.53268059 C0.58689583 386.70409124 0.59876798 388.87465912 0.61523914 391.04599953 C0.61713775 392.25275074 0.61903635 393.45950195 0.62099248 394.70282137 C1.19294687 399.67854265 2.83668136 402.92393025 6.5 406.3125 C10.14655726 408.77392615 12.90915796 409.13388149 17.20581055 409.20532227 C18.26668381 409.22526749 19.32755707 409.24521271 20.420578 409.26576233 C21.56440445 409.28247482 22.7082309 409.29918732 23.88671875 409.31640625 C25.05886429 409.33718735 26.23100983 409.35796844 27.43867493 409.37937927 C31.18822286 409.44483818 34.93784163 409.50374296 38.6875 409.5625 C41.22722091 409.60568868 43.76693462 409.64930308 46.30664062 409.69335938 C52.53768755 409.8005159 58.76880584 409.90179388 65 410 C65 413.96 65 417.92 65 422 C57.34978575 422.11347876 49.6998903 422.20498884 42.04903603 422.25906086 C38.49542306 422.28502821 34.9424214 422.32018483 31.38916016 422.37719727 C27.29323852 422.44249683 23.19794739 422.46628629 19.1015625 422.48828125 C17.8407486 422.51408768 16.57993469 422.5398941 15.28091431 422.56648254 C7.42509207 422.56895386 1.56283727 421.48391145 -5 417 C-7.25390625 414.6484375 -7.25390625 414.6484375 -8.5625 412.375 C-9.01753906 411.61960937 -9.47257812 410.86421875 -9.94140625 410.0859375 C-12.00229062 406.02500667 -12.12444231 402.824219 -12.12304783 398.32143879 C-12.12420167 397.63587429 -12.12535552 396.95030979 -12.12654433 396.2439706 C-12.12920662 393.92990109 -12.12469199 391.61590013 -12.12025452 389.30183411 C-12.1206903 387.63282543 -12.12156533 385.96381681 -12.12284368 384.29480857 C-12.12508729 379.69534211 -12.12106917 375.09589879 -12.11606562 370.49643528 C-12.1117594 365.5414315 -12.11320767 360.58642908 -12.1139679 355.63142395 C-12.11449302 347.04216514 -12.1113474 338.4529139 -12.10573006 329.863657 C-12.09761353 317.44493225 -12.09499968 305.02621118 -12.09374207 292.60748406 C-12.09155179 272.46040722 -12.08489236 252.31333442 -12.07543945 232.16625977 C-12.06626471 212.5917157 -12.05918418 193.01717273 -12.05493164 173.44262695 C-12.05466892 172.23666891 -12.05440619 171.03071087 -12.05413551 169.78820864 C-12.0528305 163.73845576 -12.05156679 157.68870288 -12.05032361 151.63894999 C-12.03995175 101.42596387 -12.02233409 51.21298213 -12 1 C-10.37512529 0.83211627 -8.75009558 0.66573213 -7.125 0.5 C-6.22007813 0.4071875 -5.31515625 0.314375 -4.3828125 0.21875 C-2 0 -2 0 0 0 Z " fill="#6A888F" transform="translate(125,309)"/>
<path d="M0 0 C1.15459717 -0.00953201 2.30919434 -0.01906403 3.4987793 -0.02888489 C4.75086182 -0.02797348 6.00294434 -0.02706207 7.29296875 -0.02612305 C9.21266479 -0.03255074 9.21266479 -0.03255074 11.17114258 -0.03910828 C13.88138975 -0.04657421 16.59150666 -0.04627633 19.30175781 -0.04101562 C22.77906098 -0.03521639 26.2558323 -0.05216029 29.73304749 -0.0753603 C33.04471081 -0.0936116 36.35625531 -0.08991302 39.66796875 -0.08862305 C40.92005127 -0.09783279 42.17213379 -0.10704254 43.4621582 -0.11653137 C45.19405396 -0.10718819 45.19405396 -0.10718819 46.9609375 -0.09765625 C47.98082764 -0.09828568 49.00071777 -0.0989151 50.05151367 -0.0995636 C50.85306885 0.0239296 51.65462402 0.14742279 52.48046875 0.2746582 C54.75168584 3.68148384 54.72515762 4.85263004 54.70751953 8.84765625 C54.70736847 9.98861252 54.70721741 11.12956879 54.70706177 12.30509949 C54.6967392 13.53642105 54.68641663 14.76774261 54.67578125 16.03637695 C54.67295135 17.29730667 54.67012146 18.55823639 54.66720581 19.8573761 C54.6579 23.20626243 54.63993578 26.55487611 54.61779785 29.90368652 C54.59732261 33.32224167 54.58820051 36.74082501 54.578125 40.15942383 C54.55605055 46.8645774 54.52256237 53.56960206 54.48046875 60.2746582 C55.75921875 60.2334082 57.03796875 60.1921582 58.35546875 60.1496582 C60.53515625 60.0793457 60.53515625 60.0793457 62.48046875 60.2746582 C65.03995874 62.83414819 64.74115606 64.54673015 64.75390625 68.0402832 C64.74617188 68.77762695 64.7384375 69.5149707 64.73046875 70.2746582 C64.74207031 71.38067383 64.74207031 71.38067383 64.75390625 72.5090332 C64.73378835 78.02133861 64.73378835 78.02133861 62.48046875 80.2746582 C59.99189963 80.47289191 57.61462738 80.54746508 55.125 80.53344727 C53.98821304 80.53870422 53.98821304 80.53870422 52.82846069 80.54406738 C50.31653761 80.5528895 47.80489483 80.54703394 45.29296875 80.5402832 C43.55183864 80.54162972 41.8107089 80.54357013 40.06958008 80.54608154 C36.41776963 80.54903345 32.76605692 80.54473303 29.11425781 80.53540039 C24.42639894 80.52400579 19.73876905 80.53056491 15.05091858 80.54254532 C11.45477565 80.54976213 7.85868727 80.54747682 4.26254272 80.54228973 C2.53372165 80.54095274 0.80489567 80.54260269 -0.92391968 80.54724884 C-3.33743466 80.55231117 -5.75057548 80.5446082 -8.1640625 80.53344727 C-9.24259995 80.53951996 -9.24259995 80.53951996 -10.34292603 80.54571533 C-15.29100229 80.50318717 -15.29100229 80.50318717 -17.51953125 78.2746582 C-17.71805227 75.5654302 -17.79792602 72.98162641 -17.76953125 70.2746582 C-17.77726563 69.53731445 -17.785 68.7999707 -17.79296875 68.0402832 C-17.77285085 62.5279778 -17.77285085 62.5279778 -15.51953125 60.2746582 C-12.8311374 60.00473914 -10.22811189 60.18728463 -7.51953125 60.2746582 C-7.52397247 59.55247101 -7.5284137 58.83028381 -7.5329895 58.08621216 C-7.573025 51.28799798 -7.60349463 44.48980137 -7.62315559 37.69149971 C-7.63360323 34.19621893 -7.64778008 30.70103537 -7.67041016 27.20581055 C-7.69625078 23.18968764 -7.70599591 19.17366724 -7.71484375 15.1574707 C-7.72516632 13.89911407 -7.73548889 12.64075745 -7.74612427 11.3442688 C-7.74627533 10.18321625 -7.74642639 9.0221637 -7.74658203 7.82592773 C-7.75102325 6.80000519 -7.75546448 5.77408264 -7.76004028 4.71707153 C-7.26665693 -0.29332684 -4.27879449 0.01932961 0 0 Z " fill="#FECA45" transform="translate(171.51953125,541.725341796875)"/>
<path d="M0 0 C6.69688036 5.89804771 10.49446106 13.26346363 12 22 C12.10190007 23.80147063 12.15783681 25.60590773 12.17700195 27.41015625 C12.19625481 28.99836182 12.19625481 28.99836182 12.21589661 30.61865234 C12.22328354 31.75512207 12.23067047 32.8915918 12.23828125 34.0625 C12.246353 35.24537598 12.25442474 36.42825195 12.26274109 37.64697266 C12.27656197 40.15184066 12.28729303 42.65672734 12.29516602 45.16162109 C12.30665758 47.70627414 12.3270641 50.25090362 12.35668945 52.79541016 C12.39966902 56.488772 12.41557997 60.1814181 12.42578125 63.875 C12.44328934 64.99527588 12.46079742 66.11555176 12.47883606 67.26977539 C12.45087743 77.62938741 10.49326191 88.23856579 3.71484375 96.4140625 C-2.62563292 102.2779202 -10.24820309 103.37140686 -18.57421875 103.26953125 C-25.55283175 102.72047276 -30.941404 100.51721627 -35.875 95.5 C-43.83851374 85.41413472 -44.14346151 72.24012739 -44.203125 59.953125 C-44.20882507 59.02006531 -44.21452515 58.08700562 -44.22039795 57.12567139 C-44.22978647 55.16256828 -44.23635724 53.19944985 -44.24023438 51.23632812 C-44.24992855 48.27184869 -44.28100659 45.30806704 -44.3125 42.34375 C-44.39078416 28.4653686 -44.40713831 14.23179875 -35 3 C-25.28233422 -5.26676429 -10.97471566 -7.62431323 0 0 Z " fill="#FDFEFF" transform="translate(462,315)"/>
<path d="M0 0 C1.73200905 -0.00956978 1.73200905 -0.00956978 3.49900818 -0.01933289 C4.75625198 -0.02044571 6.01349579 -0.02155853 7.30883789 -0.02270508 C8.5900502 -0.02603348 9.87126251 -0.02936188 11.19129944 -0.03279114 C13.90748944 -0.03878825 16.62364759 -0.04063045 19.33984375 -0.04003906 C22.82490006 -0.03993742 26.30975269 -0.05358849 29.7947607 -0.07081127 C33.11195647 -0.08458699 36.42911384 -0.08401957 39.74633789 -0.08520508 C41.00155746 -0.09239059 42.25677704 -0.09957611 43.55003357 -0.10697937 C45.28677086 -0.10236443 45.28677086 -0.10236443 47.05859375 -0.09765625 C48.59295326 -0.09979378 48.59295326 -0.09979378 50.15830994 -0.10197449 C52.59399414 0.14526367 52.59399414 0.14526367 54.59399414 2.14526367 C54.83450317 4.587677 54.83450317 4.587677 54.82104492 7.6965332 C54.82089386 8.85758575 54.8207428 10.01863831 54.82058716 11.21487427 C54.81026459 12.4732309 54.79994202 13.73158752 54.78930664 15.02807617 C54.78647675 16.31261688 54.78364685 17.59715759 54.7807312 18.92062378 C54.77309223 22.33689134 54.75344167 25.75298904 54.73132324 29.16918945 C54.71087038 32.6546804 54.7017307 36.14019877 54.69165039 39.62573242 C54.67019589 46.46564598 54.63605685 53.30544667 54.59399414 60.14526367 C55.68711914 60.12463867 56.78024414 60.10401367 57.90649414 60.08276367 C61.59399414 60.14526367 61.59399414 60.14526367 64.59399414 61.14526367 C64.59399414 67.08526367 64.59399414 73.02526367 64.59399414 79.14526367 C61.59376618 80.64537765 58.5124874 80.28389969 55.22265625 80.2746582 C54.46319199 80.27641052 53.70372772 80.27816284 52.92124939 80.27996826 C50.40458915 80.28437867 47.88799887 80.28145193 45.37133789 80.27807617 C43.62781257 80.27874937 41.88428733 80.27971954 40.14076233 80.28097534 C36.48478299 80.28245116 32.82882807 80.28030122 29.17285156 80.27563477 C24.47598551 80.26993333 19.77917655 80.27321984 15.08231258 80.27920723 C11.48193427 80.28281238 7.88156959 80.28167455 4.28119087 80.27907944 C2.5487524 80.27841026 0.8163127 80.27923828 -0.91612434 80.28155899 C-3.33213736 80.28408521 -5.74805651 80.28024557 -8.1640625 80.2746582 C-9.24799286 80.27769455 -9.24799286 80.27769455 -10.3538208 80.28079224 C-15.29174229 80.25952724 -15.29174229 80.25952724 -16.40600586 79.14526367 C-16.50437796 77.81482742 -16.53679178 76.47933023 -16.53881836 75.14526367 C-16.54010742 74.34088867 -16.54139648 73.53651367 -16.54272461 72.70776367 C-16.53885742 71.86213867 -16.53499023 71.01651367 -16.53100586 70.14526367 C-16.53487305 69.29963867 -16.53874023 68.45401367 -16.54272461 67.58276367 C-16.54143555 66.77838867 -16.54014648 65.97401367 -16.53881836 65.14526367 C-16.53769043 64.40276367 -16.5365625 63.66026367 -16.53540039 62.89526367 C-16.40600586 61.14526367 -16.40600586 61.14526367 -15.40600586 60.14526367 C-13.88672548 60.07346403 -12.36433104 60.0613436 -10.84350586 60.08276367 C-10.0172168 60.09178711 -9.19092773 60.10081055 -8.33959961 60.11010742 C-7.70151367 60.12170898 -7.06342773 60.13331055 -6.40600586 60.14526367 C-6.40822647 59.40832779 -6.41044708 58.67139191 -6.41273499 57.91212463 C-6.43273789 50.98113599 -6.44797999 44.05015163 -6.45781803 37.11914158 C-6.46304581 33.55548945 -6.47014155 29.9918611 -6.48144531 26.42822266 C-6.49434762 22.3352027 -6.49923492 18.24220788 -6.50366211 14.14916992 C-6.50882339 12.86377823 -6.51398468 11.57838654 -6.51930237 10.25404358 C-6.51941566 8.48232033 -6.51941566 8.48232033 -6.51953125 6.67480469 C-6.52175186 5.62889664 -6.52397247 4.58298859 -6.52626038 3.50538635 C-6.29999875 -0.93523846 -3.88787141 0.01449919 0 0 Z " fill="#FECA45" transform="translate(673.406005859375,541.854736328125)"/>
<path d="M0 0 C0.93199219 -0.00257813 1.86398438 -0.00515625 2.82421875 -0.0078125 C3.80003906 -0.00007812 4.77585937 0.00765625 5.78125 0.015625 C6.75707031 0.00789062 7.73289062 0.00015625 8.73828125 -0.0078125 C9.67027344 -0.00523437 10.60226563 -0.00265625 11.5625 0 C12.41908203 0.00225586 13.27566406 0.00451172 14.15820312 0.00683594 C16.28125 0.265625 16.28125 0.265625 18.28125 2.265625 C19.05974028 10.52730164 18.08157622 19.1040412 17.51171875 27.36328125 C17.43004959 28.55996933 17.34838043 29.75665741 17.26423645 30.98960876 C17.09093507 33.49478759 16.91518041 35.99979783 16.73706055 38.50463867 C16.46735312 42.34803086 16.21704376 46.1924073 15.96679688 50.03710938 C15.79546503 52.47925074 15.62298055 54.92131158 15.44921875 57.36328125 C15.37720749 58.5132106 15.30519623 59.66313995 15.23100281 60.84791565 C15.15114639 61.91009811 15.07128998 62.97228058 14.98901367 64.06665039 C14.92461594 65.00086319 14.8602182 65.93507599 14.79386902 66.89759827 C14.20066112 69.6379027 13.51297515 70.60733844 11.28125 72.265625 C8.6875 72.69921875 8.6875 72.69921875 5.78125 72.703125 C4.8221875 72.72246094 3.863125 72.74179687 2.875 72.76171875 C0.28125 72.265625 0.28125 72.265625 -1.32373047 70.81835938 C-3.42080839 66.98093432 -3.40213734 63.24057326 -3.6328125 58.92578125 C-3.69278412 58.00784286 -3.75275574 57.08990448 -3.81454468 56.14414978 C-4.00370566 53.20611585 -4.17412862 50.26734545 -4.34375 47.328125 C-4.46488091 45.38468637 -4.58726391 43.44132535 -4.7109375 41.49804688 C-4.94784693 37.76001658 -5.17822573 34.02167388 -5.40405273 30.28295898 C-5.71912549 25.14618115 -6.10387046 20.01798831 -6.5300293 14.88916016 C-7.16803446 6.01981546 -7.16803446 6.01981546 -6.71875 2.265625 C-4.22817749 -0.22494751 -3.43402341 0.0090437 0 0 Z " fill="#FEFEFE" transform="translate(106.71875,192.734375)"/>
<path d="M0 0 C0.33 0 0.66 0 1 0 C1 20.79 1 41.58 1 63 C-13.85 63 -28.7 63 -44 63 C-39.88303806 56.53048838 -35.81938395 50.16241962 -31.375 43.9375 C-30.868479 43.22343994 -30.36195801 42.50937988 -29.84008789 41.77368164 C-25.53716303 35.7203251 -21.17536882 29.70978454 -16.81298828 23.69921875 C-12.55804045 17.81825001 -8.42003493 11.86293597 -4.33764648 5.86108398 C-1.08989888 1.08989888 -1.08989888 1.08989888 0 0 Z " fill="#FBFDFF" transform="translate(600,320)"/>
<path d="M0 0 C0.33 0 0.66 0 1 0 C1 20.46 1 40.92 1 62 C-13.52 62 -28.04 62 -43 62 C-39.83922097 56.31059775 -36.93741606 51.27492034 -33.0625 46.1875 C-28.61951593 40.24051251 -24.3068975 34.21529566 -20.0625 28.125 C-19.47839355 27.28759277 -18.89428711 26.45018555 -18.29248047 25.58740234 C-17.11503271 23.8990664 -15.93778594 22.21059028 -14.76074219 20.52197266 C-11.91395373 16.44441792 -9.05272588 12.37711264 -6.1875 8.3125 C-5.42288452 7.22509521 -5.42288452 7.22509521 -4.64282227 6.11572266 C-1.11748972 1.11748972 -1.11748972 1.11748972 0 0 Z " fill="#FDFEFF" transform="translate(312,321)"/>
<path d="M0 0 C2.64831775 0.34464409 4.68847083 -0.13279951 7.28125 -0.703125 C7.39739929 3.3799692 7.46848457 7.46263877 7.53125 11.546875 C7.58152344 13.28517578 7.58152344 13.28517578 7.6328125 15.05859375 C7.64570313 16.17363281 7.65859375 17.28867187 7.671875 18.4375 C7.69282227 19.46391602 7.71376953 20.49033203 7.73535156 21.54785156 C7.16234634 25.0166896 6.02099399 26.16429726 3.28125 28.296875 C-0.43307612 29.03974022 -3.98137943 28.86967383 -7.71875 28.296875 C-10.40625 26.484375 -10.40625 26.484375 -11.71875 24.296875 C-11.71875 23.306875 -11.71875 22.316875 -11.71875 21.296875 C-9.34375 21.109375 -9.34375 21.109375 -6.71875 21.296875 C-6.05875 22.286875 -5.39875 23.276875 -4.71875 24.296875 C-2.73875 23.966875 -0.75875 23.636875 1.28125 23.296875 C1.28125 21.646875 1.28125 19.996875 1.28125 18.296875 C0.29125 18.956875 -0.69875 19.616875 -1.71875 20.296875 C-5.04923763 20.15515212 -7.20798059 19.5925836 -10.09375 17.921875 C-12.76528103 13.60632488 -12.53255952 9.21606289 -11.71875 4.296875 C-8.52043751 -1.06803628 -5.65022543 -1.15391928 0 0 Z " fill="#65848B" transform="translate(356.71875,510.703125)"/>
<path d="M0 0 C1.65 0 3.3 0 5 0 C5 9.24 5 18.48 5 28 C2.33333333 28 -0.33333333 28 -3 28 C-4.7015625 28.12375 -4.7015625 28.12375 -6.4375 28.25 C-10 28 -10 28 -12.375 26.125 C-15.34240443 22.24454806 -15.52228809 18.77389636 -15 14 C-13.36312815 10.41447119 -12.31027417 9.20684945 -9 7 C-4.92509248 6.66042437 -3.46998729 6.68667514 0 9 C0 6.03 0 3.06 0 0 Z " fill="#67858C" transform="translate(590,503)"/>
<path d="M0 0 C2.536875 -0.103125 5.07375 -0.20625 7.6875 -0.3125 C8.47729248 -0.35802002 9.26708496 -0.40354004 10.08081055 -0.45043945 C14.1409831 -0.53001042 15.64064328 -0.26951754 19.015625 2.26171875 C21 5 21 5 21.41015625 7.1328125 C20.47485662 12.49239465 20.47485662 12.49239465 18.1875 14.9375 C13.72411437 17.10543016 9.96369912 17.09545575 5 17 C5 20.3 5 23.6 5 27 C3.35 27 1.7 27 0 27 C0 18.09 0 9.18 0 0 Z " fill="#5F7D85" transform="translate(298,504)"/>
<path d="M0 0 C6 0 6 0 7.59912109 1.46875 C8.18040771 2.47421875 8.18040771 2.47421875 8.7734375 3.5 C9.20527344 4.221875 9.63710938 4.94375 10.08203125 5.6875 C10.50871094 6.450625 10.93539063 7.21375 11.375 8 C11.82488281 8.763125 12.27476562 9.52625 12.73828125 10.3125 C13.8453284 12.19683557 14.92532412 14.09701663 16 16 C16.33 10.72 16.66 5.44 17 0 C18.65 0 20.3 0 22 0 C22 8.91 22 17.82 22 27 C17 27 17 27 15.42260742 25.43945312 C14.98795166 24.72724609 14.5532959 24.01503906 14.10546875 23.28125 C13.62529297 22.51425781 13.14511719 21.74726562 12.65039062 20.95703125 C12.16763672 20.14621094 11.68488281 19.33539062 11.1875 18.5 C10.68541016 17.68917969 10.18332031 16.87835937 9.66601562 16.04296875 C8.42794798 14.03847828 7.21184616 12.02045104 6 10 C5.67 15.61 5.34 21.22 5 27 C3.35 27 1.7 27 0 27 C0 18.09 0 9.18 0 0 Z " fill="#66848B" transform="translate(402,504)"/>
<path d="M0 0 C2.8100346 1.79363911 4.50940468 3.01880935 6 6 C6.55512815 10.63213493 6.6364242 13.98172127 4.125 18 C0.85246659 21.08003145 -1.46120307 21.33815051 -5.9609375 21.2890625 C-9.16544562 20.83478357 -10.82724211 19.30444019 -13 17 C-14.23671367 13.28985899 -14.56368603 9.85561242 -14 6 C-10.32759145 0.24655994 -6.71744997 -0.96515086 0 0 Z " fill="#65838B" transform="translate(443,510)"/>
<path d="M0 0 C2.9375 1.375 2.9375 1.375 5 4 C6.2571578 8.63040107 6.61031012 12.53525571 4.75 17 C1.9653883 20.18241337 0.37105689 20.96409127 -3.875 21.375 C-8.01539255 21.28349961 -10.08332292 20.00506123 -13 17 C-14.72869779 13.54260443 -14.48966895 9.78024432 -14 6 C-10.34889319 0.1582291 -6.72207239 -0.86279473 0 0 Z " fill="#65838A" transform="translate(516,510)"/>
<path d="M0 0 C4.6 2.2 4.6 2.2 6 5 C6.07181821 7.71760108 6.09299506 10.40859388 6.0625 13.125 C6.05798828 13.87910156 6.05347656 14.63320313 6.04882812 15.41015625 C6.03703499 17.27347127 6.01909942 19.13674555 6 21 C3.33333333 21 0.66666667 21 -2 21 C-3.7325 21.0928125 -3.7325 21.0928125 -5.5 21.1875 C-9 21 -9 21 -10.9375 19.875 C-12.52225401 17.07837528 -12.45947423 15.1506804 -12 12 C-9.59035866 8.96175657 -6.92069764 8.74026634 -3.25 8.3125 C-1.83429039 8.19604647 -0.41777182 8.08785338 1 8 C0.34 6.68 -0.32 5.36 -1 4 C-1.721875 4.144375 -2.44375 4.28875 -3.1875 4.4375 C-5.79166667 4.95833333 -8.39583333 5.47916667 -11 6 C-10.6875 4.125 -10.6875 4.125 -10 2 C-6.27420911 -0.48386059 -4.41288598 -0.3804212 0 0 Z " fill="#67858C" transform="translate(334,510)"/>
<path d="M0 0 C2.1640625 0.6015625 2.1640625 0.6015625 4.7265625 2.7890625 C6.1640625 5.6015625 6.1640625 5.6015625 6.1640625 11.6015625 C1.5440625 11.6015625 -3.0759375 11.6015625 -7.8359375 11.6015625 C-6.8459375 13.2515625 -5.8559375 14.9015625 -4.8359375 16.6015625 C-1.5359375 16.2715625 1.7640625 15.9415625 5.1640625 15.6015625 C4.5040625 16.9215625 3.8440625 18.2415625 3.1640625 19.6015625 C-0.44166454 20.80347151 -3.046181 20.92826565 -6.8359375 20.6015625 C-10.22533306 18.46476965 -11.56176307 17.4240858 -12.8359375 13.6015625 C-13.20660523 8.59754815 -12.93475585 5.61854926 -9.8359375 1.6015625 C-6.08382468 -0.89984604 -4.31650238 -0.60459154 0 0 Z " fill="#607F86" transform="translate(381.8359375,510.3984375)"/>
<path d="M0 0 C28.05 0 56.1 0 85 0 C85 0.99 85 1.98 85 3 C56.95 3 28.9 3 0 3 C0 2.01 0 1.02 0 0 Z " fill="#82999E" transform="translate(709,239)"/>
<path d="M0 0 C3.44652326 2.44128731 4.78056289 3.82966874 5.5625 8 C4.87642343 11.65907504 3.57265686 13.35167676 1 16 C-1.85324437 17.42662219 -3.83454549 17.31033868 -7 17 C-10.74785043 14.91786087 -11.79482295 13.7052961 -13 9.5625 C-13 5.62891627 -12.41868244 4.04574825 -10 1 C-6.77299243 -0.61350378 -3.48900338 -0.58705984 0 0 Z " fill="#F6F8F8" transform="translate(680,78)"/>
<path d="M0 0 C6.27 0 12.54 0 19 0 C19 1.32 19 2.64 19 4 C14.38 4 9.76 4 5 4 C5 6.64 5 9.28 5 12 C9.29 12 13.58 12 18 12 C18 13.32 18 14.64 18 16 C13.71 16 9.42 16 5 16 C5 19.63 5 23.26 5 27 C3.35 27 1.7 27 0 27 C0 18.09 0 9.18 0 0 Z " fill="#57777F" transform="translate(480,504)"/>
<path d="M0 0 C1.98 0 3.96 0 6 0 C6.33 4.95 6.66 9.9 7 15 C8.98 15 10.96 15 13 15 C14.41634833 12.16730334 14.3463005 9.52533562 14.5625 6.375 C14.64628906 5.18648437 14.73007812 3.99796875 14.81640625 2.7734375 C14.87699219 1.85820313 14.93757812 0.94296875 15 0 C16.65 0 18.3 0 20 0 C20 6.6 20 13.2 20 20 C18.35 20 16.7 20 15 20 C14.67 19.34 14.34 18.68 14 18 C13.01 18.66 12.02 19.32 11 20 C7.61431194 20.36017958 5.6727981 20.38185838 2.6875 18.6875 C0.14548696 16.14548696 0.00547198 14.18801716 -0.09765625 10.64453125 C-0.08605469 9.37996094 -0.07445312 8.11539063 -0.0625 6.8125 C-0.05347656 5.54019531 -0.04445313 4.26789062 -0.03515625 2.95703125 C-0.02355469 1.98121094 -0.01195312 1.00539063 0 0 Z " fill="#6D8990" transform="translate(526,511)"/>
<path d="M0 0 C1.32 0 2.64 0 4 0 C4.33 0.66 4.66 1.32 5 2 C5.99 1.34 6.98 0.68 8 0 C14.12353923 0.32804674 14.12353923 0.32804674 16.875 2.4375 C19.46380486 6.03306231 19.11364783 9.36005747 19.0625 13.625 C19.05798828 14.33140625 19.05347656 15.0378125 19.04882812 15.765625 C19.03703875 17.51045275 19.01910324 19.255237 19 21 C17.35 21 15.7 21 14 21 C13.95101562 20.01257813 13.90203125 19.02515625 13.8515625 18.0078125 C13.73941406 16.08582031 13.73941406 16.08582031 13.625 14.125 C13.55539062 12.84882812 13.48578125 11.57265625 13.4140625 10.2578125 C13.32758894 6.91938301 13.32758894 6.91938301 11 5 C7.69316534 5.28983269 7.69316534 5.28983269 5 7 C4.76472227 9.34987262 4.58613583 11.70556039 4.4375 14.0625 C4.35371094 15.35285156 4.26992188 16.64320313 4.18359375 17.97265625 C4.12300781 18.97167969 4.06242188 19.97070312 4 21 C2.35 21 0.7 21 -1 21 C-1.02888146 17.68751813 -1.04675799 14.37506833 -1.0625 11.0625 C-1.07087891 10.11697266 -1.07925781 9.17144531 -1.08789062 8.19726562 C-1.09111328 7.29814453 -1.09433594 6.39902344 -1.09765625 5.47265625 C-1.10289307 4.64000244 -1.10812988 3.80734863 -1.11352539 2.94946289 C-1 1 -1 1 0 0 Z " fill="#68858C" transform="translate(552,510)"/>
<path d="M0 0 C3 2.125 3 2.125 5 5 C5.54886875 8.84208125 5.36394858 11.84806856 3 15 C-0.10586001 16.86351601 -1.97854043 17.00073999 -5.625 16.875 C-9 16 -9 16 -10.9375 14.4375 C-12.47842566 10.90243524 -12.67595245 7.79154935 -12 4 C-9.22048525 -0.63252459 -5.03465073 -1.14650462 0 0 Z " fill="#FAFBFB" transform="translate(734,78)"/>
<path d="M0 0 C3.0625 2 3.0625 2 5 5 C5.3335619 8.6478897 4.69489471 11.73283905 2.9375 14.9375 C-0.26716095 16.69489471 -3.3521103 17.3335619 -7 17 C-10.04546351 15.03313815 -11.63385671 13.63954428 -12.44140625 10.0234375 C-12.63569916 6.6765855 -12.22224101 4.37040169 -10.5 1.5 C-7.00688124 -0.59587126 -3.90463221 -0.87198308 0 0 Z " fill="#FAFBFB" transform="translate(707,78)"/>
<path d="M0 0 C23.43 0 46.86 0 71 0 C71 0.99 71 1.98 71 3 C47.57 3 24.14 3 0 3 C0 2.01 0 1.02 0 0 Z " fill="#8EA4A9" transform="translate(759,207)"/>
<path d="M0 0 C1.1859375 0.00257813 2.371875 0.00515625 3.59375 0.0078125 C4.7796875 0.00523437 5.965625 0.00265625 7.1875 0 C10.09375 0.1328125 10.09375 0.1328125 11.09375 1.1328125 C11.19248816 3.13080822 11.22346799 5.13238408 11.21875 7.1328125 C11.22132812 8.2259375 11.22390625 9.3190625 11.2265625 10.4453125 C11.09375 13.1328125 11.09375 13.1328125 10.09375 14.1328125 C7.90735547 14.20540196 5.71874611 14.21655033 3.53125 14.1953125 C1.73494141 14.18177734 1.73494141 14.18177734 -0.09765625 14.16796875 C-1.02449219 14.15636719 -1.95132813 14.14476562 -2.90625 14.1328125 C-4.21789842 11.50951566 -4.03887846 9.49582625 -4.03125 6.5703125 C-4.03382812 5.57902344 -4.03640625 4.58773438 -4.0390625 3.56640625 C-3.84519271 0.01402738 -3.60503924 0.16474642 0 0 Z " fill="#FBFDFB" transform="translate(108.90625,269.8671875)"/>
<path d="M0 0 C1.32 0 2.64 0 4 0 C4 2.64 4 5.28 4 8 C5.98 8 7.96 8 10 8 C10 8.99 10 9.98 10 11 C8.02 11 6.04 11 4 11 C4.33 14.63 4.66 18.26 5 22 C7.475 22.99 7.475 22.99 10 24 C10 25.32 10 26.64 10 28 C6.88241698 28.21256248 4.6646707 28.3371518 1.84375 26.90625 C-0.79544695 24.17758875 -0.60209728 22.04704361 -0.75 18.3125 C-0.80671875 17.13300781 -0.8634375 15.95351563 -0.921875 14.73828125 C-0.94765625 13.83464844 -0.9734375 12.93101562 -1 12 C-2.32 11.67 -3.64 11.34 -5 11 C-4.67 9.68 -4.34 8.36 -4 7 C-2.68 7 -1.36 7 0 7 C0 4.69 0 2.38 0 0 Z " fill="#628188" transform="translate(456,503)"/>
<path d="M0 0 C13.86 0 27.72 0 42 0 C42 0.99 42 1.98 42 3 C28.14 3 14.28 3 0 3 C0 2.01 0 1.02 0 0 Z " fill="#7C9499" transform="translate(709,207)"/>
<path d="M0 0 C3 -0.375 3 -0.375 6 0 C8.45811625 3.68717438 8.31118164 5.64345704 8 10 C7.01 11.485 7.01 11.485 6 13 C3 13.375 3 13.375 0 13 C-2.45811625 9.31282562 -2.31118164 7.35654296 -2 3 C-1.34 2.01 -0.68 1.02 0 0 Z " fill="#F5F7F7" transform="translate(509,514)"/>
<path d="M0 0 C3 -0.375 3 -0.375 6 0 C8.45811625 3.68717438 8.31118164 5.64345704 8 10 C7.01 11.485 7.01 11.485 6 13 C3 13.375 3 13.375 0 13 C-2.45811625 9.31282562 -2.31118164 7.35654296 -2 3 C-1.34 2.01 -0.68 1.02 0 0 Z " fill="#F5F7F7" transform="translate(436,514)"/>
<path d="M0 0 C3.0625 0.25 3.0625 0.25 6 1 C7.50934217 4.01868434 7.17510672 6.67297229 7 10 C6.01 11.485 6.01 11.485 5 13 C2.5625 13.4375 2.5625 13.4375 0 13 C-1.875 11.4375 -1.875 11.4375 -3 9 C-2.67272727 2.67272727 -2.67272727 2.67272727 0 0 Z " fill="#F6F8F8" transform="translate(583,514)"/>
<path d="M0 0 C2.5 0.25 2.5 0.25 4.5 2.25 C4.96376812 9.55434783 4.96376812 9.55434783 2.5 13.25 C-0.4375 12.875 -0.4375 12.875 -3.5 12.25 C-4.61445498 10.02109005 -4.66480286 8.71944894 -4.6875 6.25 C-4.70167969 5.54875 -4.71585937 4.8475 -4.73046875 4.125 C-4.34202978 0.96481851 -3.03116737 0.30311674 0 0 Z " fill="#F7F9F9" transform="translate(354.5,513.75)"/>
<path d="M0 0 C9.9 0 19.8 0 30 0 C30 0.99 30 1.98 30 3 C20.1 3 10.2 3 0 3 C0 2.01 0 1.02 0 0 Z " fill="#94A9AE" transform="translate(800,239)"/>
<path d="M0 0 C6.0546875 -0.1953125 6.0546875 -0.1953125 8 0 C10 2 10 2 10.1875 5.0625 C10 8 10 8 9 9 C5.99668982 9.14193337 3.00782866 9.04236378 0 9 C0 6.03 0 3.06 0 0 Z " fill="#FAFBFB" transform="translate(303,507)"/>
<path d="M0 0 C0.99 0.33 1.98 0.66 3 1 C2.28739906 5.28379643 0.93078264 9.25093853 -0.5625 13.3125 C-0.79646484 13.95767578 -1.03042969 14.60285156 -1.27148438 15.26757812 C-1.84447007 16.84621219 -2.42179464 18.42327026 -3 20 C-4.32 20 -5.64 20 -7 20 C-5.27068234 12.99102311 -3.16032658 6.49711809 0 0 Z " fill="#718E95" transform="translate(207,504)"/>
<path d="M0 0 C2.88305128 0.59925491 4.99659057 1.45146232 7.453125 3.06640625 C8.071875 3.46923828 8.690625 3.87207031 9.328125 4.28710938 C9.96234375 4.70798828 10.5965625 5.12886719 11.25 5.5625 C11.8996875 5.98724609 12.549375 6.41199219 13.21875 6.84960938 C14.81578918 7.8947306 16.4083442 8.94669837 18 10 C17.67 10.99 17.34 11.98 17 13 C14.11694872 12.40074509 12.00340943 11.54853768 9.546875 9.93359375 C8.928125 9.53076172 8.309375 9.12792969 7.671875 8.71289062 C7.03765625 8.29201172 6.4034375 7.87113281 5.75 7.4375 C5.1003125 7.01275391 4.450625 6.58800781 3.78125 6.15039062 C2.18421082 5.1052694 0.5916558 4.05330163 -1 3 C-0.67 2.01 -0.34 1.02 0 0 Z " fill="#68868C" transform="translate(662,521)"/>
<path d="M0 0 C0 1.32 0 2.64 0 4 C-2.23474354 5.80452554 -4.3169106 7.26793959 -6.75 8.75 C-7.70132813 9.36681641 -7.70132813 9.36681641 -8.671875 9.99609375 C-12.12488151 12.16141658 -13.83424722 13 -18 13 C-17.62283663 10.61705605 -17.38618584 9.33893867 -15.54125977 7.71972656 C-14.93080811 7.36362305 -14.32035645 7.00751953 -13.69140625 6.640625 C-13.02689453 6.24746094 -12.36238281 5.85429688 -11.67773438 5.44921875 C-10.97970703 5.05347656 -10.28167969 4.65773438 -9.5625 4.25 C-8.86833984 3.83878906 -8.17417969 3.42757812 -7.45898438 3.00390625 C-2.30444093 0 -2.30444093 0 0 0 Z " fill="#66848B" transform="translate(733,521)"/>
<path d="M0 0 C0.99 0.33 1.98 0.66 3 1 C1.50966489 5.32489404 -1.68571229 7.0358302 -5.4375 9.25 C-6.31631836 9.79527344 -6.31631836 9.79527344 -7.21289062 10.3515625 C-10.0233388 12.04867763 -11.66000574 13 -15 13 C-14.39700653 9.39013627 -14.06796852 9.05327967 -10.9453125 6.60546875 C-9.67984295 5.78702566 -8.40600089 4.98141372 -7.125 4.1875 C-6.48691406 3.76791016 -5.84882813 3.34832031 -5.19140625 2.91601562 C-3.51484477 1.85372667 -1.76007392 0.91730911 0 0 Z " fill="#65838A" transform="translate(228,521)"/>
<path d="M0 0 C3.86094532 1.42319517 7.25228499 3.21019801 10.75 5.375 C11.71421875 5.96023438 12.6784375 6.54546875 13.671875 7.1484375 C16 9 16 9 16.828125 11.2265625 C16.88484375 11.81179688 16.9415625 12.39703125 17 13 C12.3817417 12.45207105 9.01850353 10.41035512 5.1875 7.9375 C4.59001953 7.56044922 3.99253906 7.18339844 3.37695312 6.79492188 C1.91363423 5.87010434 0.45620477 4.93597935 -1 4 C-0.67 2.68 -0.34 1.36 0 0 Z " fill="#65838A" transform="translate(160,521)"/>
<path d="M0 0 C0.99 0 1.98 0 3 0 C2.39297368 6.6772895 0.22368606 12.70127996 -2 19 C-3.32 19 -4.64 19 -6 19 C-4.70024676 12.28460827 -2.70071112 6.27980887 0 0 Z " fill="#68868D" transform="translate(709,505)"/>
<path d="M0 0 C1.32 0 2.64 0 4 0 C4.86928276 2.39127957 5.72051601 4.78661726 6.5625 7.1875 C6.9327832 8.19780273 6.9327832 8.19780273 7.31054688 9.22851562 C8.68624467 13.2006008 9.31172566 15.95485799 8 20 C7.34 20 6.68 20 6 20 C4.99422987 17.23113877 3.99519853 14.46015896 3 11.6875 C2.71382812 10.90181641 2.42765625 10.11613281 2.1328125 9.30664062 C1.86210937 8.54931641 1.59140625 7.79199219 1.3125 7.01171875 C1.06113281 6.31522217 0.80976563 5.61872559 0.55078125 4.90112305 C0 3 0 3 0 0 Z " fill="#65838A" transform="translate(180,505)"/>
<path d="M0 0 C1.82421875 0.04296875 1.82421875 0.04296875 4 1 C5.16684881 3.4866778 6.02121024 5.70976538 6.8125 8.3125 C7.04130859 8.98990234 7.27011719 9.66730469 7.50585938 10.36523438 C8.62412575 13.86366405 9.45903179 16.51801615 8 20 C7.01 19.67 6.02 19.34 5 19 C3.94952628 16.54692194 3.09779563 14.22369646 2.3125 11.6875 C2.08755859 11.01009766 1.86261719 10.33269531 1.63085938 9.63476562 C0.53554779 6.22897914 0 3.61260221 0 0 Z " fill="#5B7A82" transform="translate(683,505)"/>
<path d="M0 0 C0.33 0 0.66 0 1 0 C1.1875 2.875 1.1875 2.875 1 6 C-2 8 -2 8 -4.6875 7.625 C-5.450625 7.41875 -6.21375 7.2125 -7 7 C-7.33 5.35 -7.66 3.7 -8 2 C-6.865625 1.855625 -5.73125 1.71125 -4.5625 1.5625 C-1.19222799 1.38828522 -1.19222799 1.38828522 0 0 Z " fill="#F4F6F7" transform="translate(358,528)"/>
<path d="M0 0 C-0.75 4.75 -0.75 4.75 -3 7 C-5.625 6.625 -5.625 6.625 -8 6 C-8 4.68 -8 3.36 -8 2 C-4.91190305 0.23537317 -3.76687864 0 0 0 Z " fill="#F2F4F5" transform="translate(335,521)"/>
<path d="M0 0 C2.625 0.375 2.625 0.375 5 1 C5.33 2.65 5.66 4.3 6 6 C3.03 6 0.06 6 -3 6 C-2 2 -2 2 0 0 Z " fill="#F3F5F6" transform="translate(377,513)"/>
<path d="M0 0 C1.90318884 2.85478326 2.4619099 4.41941308 3.125 7.6875 C3.29257812 8.49574219 3.46015625 9.30398438 3.6328125 10.13671875 C3.75398437 10.75160156 3.87515625 11.36648438 4 12 C2.68 12 1.36 12 0 12 C-0.66 9.69 -1.32 7.38 -2 5 C-1.34 5 -0.68 5 0 5 C0 3.35 0 1.7 0 0 Z " fill="#708D94" transform="translate(688,512)"/>
<path d="M0 0 C0.66 0 1.32 0 2 0 C2.25 7.625 2.25 7.625 0 11 C-0.99 10.67 -1.98 10.34 -3 10 C-2.01 6.7 -1.02 3.4 0 0 Z " fill="#5F7D85" transform="translate(203,514)"/>
<path d="M0 0 C0.99 0 1.98 0 3 0 C3 1.65 3 3.3 3 5 C1.68 5 0.36 5 -1 5 C-0.67 3.35 -0.34 1.7 0 0 Z " fill="#5C7A81" transform="translate(704,519)"/>
</svg>
